<?xml version="1.0" encoding="UTF-8"?>
<svg version="1.1" xmlns="http://www.w3.org/2000/svg" width="1024" height="1024">
<path d="M0 0 C337.92 0 675.84 0 1024 0 C1024 337.92 1024 675.84 1024 1024 C686.08 1024 348.16 1024 0 1024 C0 686.08 0 348.16 0 0 Z " fill="#FEFEFE" transform="translate(0,0)"/>
<path d="M0 0 C2.22216797 1.0246582 2.22216797 1.0246582 4.4921875 2.30078125 C5.35005859 2.77708984 6.20792969 3.25339844 7.09179688 3.74414062 C8.01025391 4.26169922 8.92871094 4.77925781 9.875 5.3125 C11.86094469 6.41462653 13.84795785 7.51482957 15.8359375 8.61328125 C16.85655273 9.17740723 17.87716797 9.7415332 18.92871094 10.32275391 C23.74818922 12.95469475 28.62210619 15.47846177 33.5 18 C41.97307278 22.38970733 50.3669686 26.90545915 58.73046875 31.5 C66.2198126 35.60257923 73.7804232 39.55692495 81.36376953 43.48242188 C89.16214106 47.5312438 96.87856116 51.71975289 104.55664062 55.9921875 C105.40162109 56.45882812 106.24660156 56.92546875 107.1171875 57.40625 C107.84534668 57.81166016 108.57350586 58.21707031 109.32373047 58.63476562 C113.13926403 60.58116808 117.08585819 62.26038142 121 64 C121 85.78 121 107.56 121 130 C112.09 134.62 103.18 139.24 94 144 C80.60900103 151.23837782 67.30776121 158.60679933 54 166 C53.505 237.775 53.505 237.775 53 311 C41.89495007 317.16947219 30.79400081 323.32607017 19.6081543 329.34423828 C15.30123292 331.66316437 10.99919846 333.9807855 6.7578125 336.41796875 C5.62085938 337.06378906 4.48390625 337.70960938 3.3125 338.375 C2.38050781 338.91898438 1.44851563 339.46296875 0.48828125 340.0234375 C-2.60373621 341.23694514 -3.81917509 340.87560102 -7 340 C-8.97761858 339.07810392 -10.9224247 338.08430052 -12.83984375 337.04296875 C-13.97558838 336.43026123 -15.11133301 335.81755371 -16.28149414 335.1862793 C-17.50026522 334.52020697 -18.7189317 333.85394323 -19.9375 333.1875 C-21.18777829 332.50963483 -22.43835088 331.83231223 -23.68920898 331.15551758 C-26.85486635 329.4407006 -30.01623952 327.7181415 -33.17663574 325.99365234 C-35.99245664 324.45915532 -38.812822 322.93306732 -41.6328125 321.40625 C-43.60963594 320.33381418 -45.58621338 319.26092475 -47.5625 318.1875 C-48.47700928 317.69080811 -49.39151855 317.19411621 -50.33374023 316.68237305 C-51.59359741 315.99461792 -51.59359741 315.99461792 -52.87890625 315.29296875 C-53.6066626 314.8961792 -54.33441895 314.49938965 -55.08422852 314.09057617 C-56.76630626 313.133033 -58.3895421 312.0736386 -60 311 C-60.36914349 308.47376823 -60.36914349 308.47376823 -60.36076355 305.21676636 C-60.36488754 303.98555054 -60.36901154 302.75433472 -60.3732605 301.48580933 C-60.36264237 300.11407254 -60.35173794 298.74233794 -60.34057617 297.37060547 C-60.33973032 295.93190529 -60.34020422 294.49320382 -60.34190369 293.05450439 C-60.34276671 289.14141178 -60.32509156 285.22859336 -60.30418181 281.31556463 C-60.28546598 277.22895531 -60.28366861 273.14234015 -60.28010559 269.05569458 C-60.2707701 261.31376991 -60.24613607 253.57197187 -60.21605712 245.83010304 C-60.1825598 237.01766661 -60.16603887 228.20522423 -60.15097082 219.39274001 C-60.11958775 201.2617548 -60.06679814 183.13088757 -60 165 C-60.92256592 164.70294159 -61.84513184 164.40588318 -62.7956543 164.099823 C-66.33238975 162.88591434 -69.53351079 161.27787316 -72.8125 159.5078125 C-73.77664574 158.99439049 -73.77664574 158.99439049 -74.76026917 158.47059631 C-76.84268956 157.36002321 -78.9214052 156.24271438 -81 155.125 C-82.43856339 154.35558145 -83.87728527 153.58645917 -85.31616211 152.81762695 C-99.28332755 145.34558391 -113.24632887 137.85924065 -127 130 C-127 108.88 -127 87.76 -127 66 C-122.98157484 67.33947505 -119.80560114 68.48245392 -116.15625 70.3984375 C-115.25221436 70.87104004 -114.34817871 71.34364258 -113.41674805 71.83056641 C-112.45422119 72.34022949 -111.49169434 72.84989258 -110.5 73.375 C-109.4788208 73.9117334 -108.4576416 74.4484668 -107.40551758 75.00146484 C-99.90943742 78.95492052 -92.46609228 83.00056119 -85.03808594 87.08007812 C-76.48696795 91.76390141 -67.87160602 96.3227825 -59.25 100.875 C-46.65916605 107.52406856 -34.09595094 114.22043432 -21.56640625 120.984375 C-20.64617676 121.47744141 -19.72594727 121.97050781 -18.77783203 122.47851562 C-16.83969481 123.54007927 -14.91983799 124.63541021 -13.01513672 125.75585938 C-12.04979004 126.31595703 -11.08444336 126.87605469 -10.08984375 127.453125 C-9.23124756 127.96520508 -8.37265137 128.47728516 -7.48803711 129.00488281 C-4.41015641 130.23591429 -3.12526799 130.03383961 0 129 C1.93070123 128.10149665 3.82873102 127.131216 5.69921875 126.11328125 C6.81425781 125.5109668 7.92929687 124.90865234 9.078125 124.28808594 C10.2813425 123.62972631 11.48446533 122.97119365 12.6875 122.3125 C13.92805698 121.63904308 15.16894713 120.96619956 16.41015625 120.29394531 C18.98116686 118.90071056 21.55037691 117.50422646 24.11865234 116.10595703 C27.89879274 114.05096866 31.69179197 112.02067965 35.48828125 109.99609375 C36.67948885 109.35970428 37.87065179 108.72323122 39.06176758 108.08666992 C41.31456942 106.88324535 43.56828088 105.68152168 45.82299805 104.48168945 C46.84047119 103.93601318 47.85794434 103.39033691 48.90625 102.828125 C49.79634766 102.3527832 50.68644531 101.87744141 51.60351562 101.38769531 C53.88251235 100.06803177 55.93236941 98.62696832 58 97 C57.2972998 96.63874023 56.59459961 96.27748047 55.87060547 95.90527344 C43.89158615 89.73951581 31.92402828 83.56815154 20.125 77.0625 C11.6567928 72.39547914 3.0988788 67.91956433 -5.5 63.5 C-16.87859029 57.64909031 -28.15982299 51.64219059 -39.36083984 45.45703125 C-42.17205407 43.90501215 -44.98613067 42.3582777 -47.80078125 40.8125 C-52.53569131 38.21166262 -57.2686436 35.60729591 -62 33 C-62 32.01 -62 31.02 -62 30 C-61.2064209 29.5781543 -60.4128418 29.15630859 -59.59521484 28.72167969 C-46.18446565 21.589661 -32.77399473 14.4577659 -19.4375 7.1875 C-18.54788574 6.70313477 -17.65827148 6.21876953 -16.74169922 5.71972656 C-15.50637451 5.04441895 -15.50637451 5.04441895 -14.24609375 4.35546875 C-13.12050049 3.74324463 -13.12050049 3.74324463 -11.97216797 3.11865234 C-9.82583923 1.93625506 -9.82583923 1.93625506 -7.22265625 0.11328125 C-4.31722637 -1.34198679 -3.09925014 -0.83689205 0 0 Z " fill="#61B493" transform="translate(515,322)"/>
<path d="M0 0 C4.01842516 1.33947505 7.19439886 2.48245392 10.84375 4.3984375 C11.74778564 4.87104004 12.65182129 5.34364258 13.58325195 5.83056641 C15.02704224 6.59506104 15.02704224 6.59506104 16.5 7.375 C17.5211792 7.9117334 18.5423584 8.4484668 19.59448242 9.00146484 C27.09056258 12.95492052 34.53390772 17.00056119 41.96191406 21.08007812 C50.51303087 25.76390076 59.12836999 30.32282984 67.75 34.875 C82.20731903 42.50936593 96.61617378 50.22785797 111 58 C115.29 60.31 119.58 62.62 124 65 C124 134.3 124 203.6 124 275 C120.02247543 273.67415848 117.10464244 272.66783933 113.5859375 270.70703125 C112.75537842 270.24852783 111.92481934 269.79002441 111.0690918 269.31762695 C110.1800415 268.82093506 109.29099121 268.32424316 108.375 267.8125 C106.43164188 266.7384023 104.48759499 265.6655501 102.54296875 264.59375 C101.50060059 264.01882813 100.45823242 263.44390625 99.38427734 262.8515625 C95.72203212 260.84792177 92.04586376 258.87217303 88.36328125 256.90625 C87.72434937 256.56510666 87.08541748 256.22396332 86.42712402 255.8724823 C83.88141494 254.5141619 81.33514951 253.15690124 78.78753662 251.80215454 C77.00730656 250.85526533 75.22823554 249.90619799 73.44921875 248.95703125 C72.42143311 248.41022705 71.39364746 247.86342285 70.3347168 247.30004883 C68 246 68 246 67 245 C66.90345273 243.11438482 66.87812759 241.22510545 66.87974548 239.33702087 C66.87768349 237.49225914 66.87768349 237.49225914 66.87557983 235.61022949 C66.87911944 234.23486304 66.88275426 232.85949683 66.88647461 231.48413086 C66.88675648 230.04557802 66.88659876 228.60702504 66.8860321 227.16847229 C66.88574411 223.25128857 66.89164116 219.33413521 66.89860606 215.41695857 C66.90483926 211.32766163 66.90544337 207.23836407 66.90663147 203.14906311 C66.90974489 195.40007602 66.91795841 187.65110297 66.92798096 179.90212208 C66.93914178 171.08243791 66.94465247 162.26275309 66.94967639 153.44306362 C66.96014102 135.29536777 66.97774066 117.14768501 67 99 C66.07743408 98.70294159 65.15486816 98.40588318 64.2043457 98.099823 C60.66761025 96.88591434 57.46648921 95.27787316 54.1875 93.5078125 C53.22335426 92.99439049 53.22335426 92.99439049 52.23973083 92.47059631 C50.15731044 91.36002321 48.0785948 90.24271438 46 89.125 C44.56143661 88.35558145 43.12271473 87.58645917 41.68383789 86.81762695 C27.71667245 79.34558391 13.75367113 71.85924065 0 64 C0 42.88 0 21.76 0 0 Z " fill="#010101" transform="translate(388,388)"/>
</svg>
