<?xml version="1.0" encoding="UTF-8"?>
<svg version="1.1" xmlns="http://www.w3.org/2000/svg" width="1024" height="1024">
<path d="M0 0 C337.92 0 675.84 0 1024 0 C1024 337.92 1024 675.84 1024 1024 C686.08 1024 348.16 1024 0 1024 C0 686.08 0 348.16 0 0 Z " fill="#E9EAEA" transform="translate(0,0)"/>
<path d="M0 0 C5.09808961 1.86909983 9.78213388 4.629296 14.51513672 7.26171875 C15.74671871 7.9360526 16.97899461 8.60912047 18.21191406 9.28100586 C20.15633529 10.34089162 22.10024204 11.4016318 24.04205322 12.46629333 C30.71991086 16.12671805 37.44658702 19.6928473 44.17825317 23.25305176 C61.06134051 32.18644085 77.88926185 41.22206082 94.67138672 50.34375 C95.74710938 50.92801758 96.82283203 51.51228516 97.93115234 52.11425781 C99.95156215 53.2122521 101.9711647 54.31173385 103.98974609 55.41308594 C104.905625 55.91098633 105.82150391 56.40888672 106.76513672 56.921875 C107.55275391 57.35121338 108.34037109 57.78055176 109.15185547 58.22290039 C113.42534794 60.47054917 117.75887181 62.60233629 122.07763672 64.76171875 C122.07763672 86.21171875 122.07763672 107.66171875 122.07763672 129.76171875 C114.48763672 133.72171875 106.89763672 137.68171875 99.07763672 141.76171875 C95.16027883 143.92406306 91.26412102 146.09014423 87.39013672 148.32421875 C85.49738471 149.40318122 83.60414463 150.4812879 81.71044922 151.55859375 C80.78393555 152.08646484 79.85742188 152.61433594 78.90283203 153.15820312 C74.20542596 155.82434235 69.48971924 158.4565968 64.76513672 161.07421875 C63.91669189 161.54867432 63.06824707 162.02312988 62.1940918 162.51196289 C61.41702881 162.94114014 60.63996582 163.37031738 59.83935547 163.8125 C59.15832764 164.19059814 58.4772998 164.56869629 57.77563477 164.95825195 C56.07763672 165.76171875 56.07763672 165.76171875 54.07763672 165.76171875 C54.08685465 166.50347918 54.09607258 167.2452396 54.10556984 168.00947762 C54.32645749 186.06198821 54.49191307 204.11422899 54.59575844 222.16780281 C54.64731329 230.89849515 54.71759087 239.62828525 54.83203125 248.35839844 C54.93173658 255.96807482 54.99622566 263.57709787 55.01852167 271.18740928 C55.03155504 275.21707218 55.06215243 279.24486617 55.13493729 283.2739296 C55.2029252 287.06826841 55.22373507 290.85997328 55.20871353 294.65486336 C55.21146029 296.04573844 55.23129977 297.43670332 55.26969147 298.82705116 C55.37896948 302.98941222 55.34024164 306.77637593 54.07763672 310.76171875 C51.08449788 313.69355371 47.92277502 315.19239405 44.07763672 316.76171875 C42.70847124 317.49196696 41.34589632 318.23498338 39.99584961 319 C38.68214702 319.69421981 37.36692922 320.38557907 36.05029297 321.07421875 C35.33586533 321.45102783 34.62143768 321.82783691 33.88536072 322.21606445 C31.63834796 323.40062238 29.3893616 324.5813675 27.14013672 325.76171875 C24.90098713 326.93958075 22.66227657 328.11826473 20.42416382 329.2980957 C18.97867252 330.05914607 17.53209376 330.81813493 16.0843811 331.57495117 C11.09220388 334.19231801 6.2018211 336.95432236 1.37231445 339.86328125 C-1.61992232 341.03483475 -2.87495579 340.76949414 -5.92236328 339.76171875 C-8.39340115 338.58924922 -10.78013282 337.38040174 -13.18017578 336.078125 C-13.88270477 335.70372787 -14.58523376 335.32933075 -15.30905151 334.94358826 C-17.55844441 333.74316586 -19.80298108 332.53397898 -22.04736328 331.32421875 C-23.50146574 330.5456174 -24.95589046 329.76761756 -26.41064453 328.99023438 C-30.91513997 326.58183081 -35.41874106 324.1717548 -39.92236328 321.76171875 C-46.19236328 318.46171875 -52.46236328 315.16171875 -58.92236328 311.76171875 C-59.25236328 263.58171875 -59.58236328 215.40171875 -59.92236328 165.76171875 C-71.14236328 159.82171875 -82.36236328 153.88171875 -93.92236328 147.76171875 C-110.73251277 138.68423803 -110.73251277 138.68423803 -113.60549927 137.02438354 C-115.92531045 135.70268488 -115.92531045 135.70268488 -118.5241394 134.7102356 C-121.50987411 133.34720619 -123.60091181 132.09746364 -125.92236328 129.76171875 C-127.32908479 124.92665882 -127.09063746 120.15987741 -126.89892578 115.17578125 C-126.88025568 113.74951144 -126.86602992 112.32317715 -126.85604858 110.89682007 C-126.81800638 107.15664109 -126.71992669 103.42039542 -126.60900879 99.6817627 C-126.50639011 95.86129986 -126.46097307 92.04019606 -126.41064453 88.21875 C-126.30364835 80.73128654 -126.13317609 73.24705529 -125.92236328 65.76171875 C-122.26616661 67.20038319 -118.79176768 68.79018614 -115.30126953 70.59765625 C-114.21322021 71.1606543 -113.1251709 71.72365234 -112.00415039 72.30371094 C-110.26210327 73.2110498 -110.26210327 73.2110498 -108.48486328 74.13671875 C-107.88223663 74.44984009 -107.27960999 74.76296143 -106.65872192 75.08557129 C-97.96821568 79.60265763 -89.33909085 84.22227411 -80.75756836 88.94335938 C-72.27636487 93.59774312 -63.72737811 98.12003812 -55.17236328 102.63671875 C-44.54885057 108.24699263 -33.93696279 113.87684766 -23.35986328 119.57421875 C-22.32700195 120.13028809 -21.29414063 120.68635742 -20.22998047 121.25927734 C-18.77640137 122.04359131 -18.77640137 122.04359131 -17.29345703 122.84375 C-16.38321777 123.33053223 -15.47297852 123.81731445 -14.53515625 124.31884766 C-12.79664685 125.27891031 -11.08102044 126.28165337 -9.39160156 127.32568359 C-8.21766846 128.04232178 -8.21766846 128.04232178 -7.02001953 128.7734375 C-6.00887085 129.42058716 -6.00887085 129.42058716 -4.97729492 130.08081055 C-2.87073998 130.9937952 -2.87073998 130.9937952 -0.50390625 130.06323242 C2.17557204 128.71234357 4.84087841 127.35440226 7.47998047 125.92578125 C8.52484619 125.36173584 9.56971191 124.79769043 10.64624023 124.21655273 C11.75797607 123.61270752 12.86971191 123.0088623 14.01513672 122.38671875 C15.7378479 121.45484741 15.7378479 121.45484741 17.49536133 120.50415039 C21.02505689 118.59417206 24.55157655 116.6784006 28.07763672 114.76171875 C29.14143555 114.18373535 30.20523438 113.60575195 31.30126953 113.01025391 C40.58123741 107.96525066 49.85124949 102.90418122 59.07763672 97.76171875 C52.30039504 93.58674769 45.40989559 89.76636105 38.32763672 86.13671875 C30.56598158 82.12537992 22.85727037 78.03611519 15.20263672 73.82421875 C4.22099133 67.79080506 -6.89178869 62.02240137 -18.02001953 56.26513672 C-32.76296801 48.62826956 -47.36700398 40.74989519 -61.92236328 32.76171875 C-61.92236328 32.10171875 -61.92236328 31.44171875 -61.92236328 30.76171875 C-61.18937012 30.37016602 -60.45637695 29.97861328 -59.70117188 29.57519531 C-46.98369929 22.77905413 -34.26942713 15.97783946 -21.60986328 9.07421875 C-20.72927246 8.59436523 -19.84868164 8.11451172 -18.94140625 7.62011719 C-18.11398926 7.16797852 -17.28657227 6.71583984 -16.43408203 6.25 C-15.6585498 5.83057129 -14.88301758 5.41114258 -14.08398438 4.97900391 C-12.70141593 4.2004308 -11.34105945 3.38008468 -10.01464844 2.50927734 C-6.64385145 0.3222332 -4.03426399 -0.90321012 0 0 Z " fill="#55B893" transform="translate(513.92236328125,292.23828125)"/>
<path d="M0 0 C3.65619667 1.43866444 7.1305956 3.02846739 10.62109375 4.8359375 C11.70914307 5.39893555 12.79719238 5.96193359 13.91821289 6.54199219 C15.66026001 7.44933105 15.66026001 7.44933105 17.4375 8.375 C18.04012665 8.68812134 18.6427533 9.00124268 19.26364136 9.32385254 C27.9541476 13.84093888 36.58327243 18.46055536 45.16479492 23.18164062 C53.64600853 27.83602992 62.19518559 32.35792397 70.75 36.875 C81.34744955 42.47379666 91.93961453 48.08153514 102.5 53.75 C103.52448242 54.29769043 104.54896484 54.84538086 105.60449219 55.40966797 C106.57032227 55.92932129 107.53615234 56.44897461 108.53125 56.984375 C109.35173828 57.42491211 110.17222656 57.86544922 111.01757812 58.31933594 C112.00177734 58.87395508 112.98597656 59.42857422 114 60 C114.80481749 60.25680227 115.60963497 60.51360455 116.43884087 60.77818871 C119.75350895 62.12206359 121.62020303 63.30062018 124 66 C125.54411207 72.58810198 125.26359301 79.13350343 125.13525391 85.86669922 C125.13243256 87.92666994 125.1340177 89.98665072 125.13967896 92.0466156 C125.14254886 97.6358063 125.08375132 103.22285196 125.01393938 108.81154394 C124.95143463 114.6530708 124.94555283 120.49464663 124.9336853 126.3364563 C124.90260122 137.39713752 124.82053667 148.45683058 124.72019041 159.51707661 C124.60842415 172.10933938 124.55343603 184.7016493 124.50323606 197.29428458 C124.39870397 223.19673761 124.2228071 249.09831345 124 275 C119.4313424 273.53060872 115.29424004 271.71963373 111.08203125 269.4375 C110.4253093 269.08671387 109.76858734 268.73592773 109.09196472 268.37451172 C106.99643234 267.25404749 104.90437684 266.12727168 102.8125 265 C101.45922298 264.27429445 100.10570885 263.5490309 98.75195312 262.82421875 C97.39650391 262.09847656 96.04105469 261.37273437 94.64453125 260.625 C85.45251865 255.70708635 76.22520224 250.8553696 67 246 C66.67 197.82 66.34 149.64 66 100 C54.78 94.06 43.56 88.12 32 82 C15.18985051 72.92251928 15.18985051 72.92251928 12.31686401 71.26266479 C9.99705284 69.94096613 9.99705284 69.94096613 7.39822388 68.94851685 C4.41248917 67.58548744 2.32145147 66.33574489 0 64 C-1.40672151 59.16494007 -1.16827418 54.39815866 -0.9765625 49.4140625 C-0.9578924 47.98779269 -0.94366664 46.5614584 -0.9336853 45.13510132 C-0.8956431 41.39492234 -0.79756341 37.65867667 -0.68664551 33.92004395 C-0.58402683 30.09958111 -0.53860978 26.27847731 -0.48828125 22.45703125 C-0.38128507 14.96956779 -0.21081281 7.48533654 0 0 Z " fill="#353D41" transform="translate(388,358)"/>
<path d="M0 0 C4.74478281 2.92529585 8.70788837 6.41146802 10.23828125 11.89453125 C11.20490334 19.27138402 10.78107864 25.80806484 6.23828125 31.89453125 C0.51395456 37.33264161 -4.14546808 38.38259949 -11.96801758 38.39868164 C-18.32029659 38.20063048 -22.32548099 36.35066245 -26.76171875 31.89453125 C-31.12933962 26.67469167 -31.50216512 21.86362785 -31.26953125 15.125 C-30.33612212 9.18708192 -27.59391336 5.30714147 -23.07421875 1.45703125 C-16.49443964 -2.62696958 -7.06609465 -2.82843676 0 0 Z " fill="#1D1E1D" transform="translate(609.76171875,720.10546875)"/>
<path d="M0 0 C5.01811711 2.93971786 8.44714072 6.54561115 10.78125 11.9140625 C11.53125 15.0390625 11.53125 15.0390625 11.53125 22.0390625 C1.63125 22.0390625 -8.26875 22.0390625 -18.46875 22.0390625 C-15.80609344 26.99883813 -15.80609344 26.99883813 -11.46875 29.0390625 C-6.14610559 29.6971349 -1.4460678 29.08103903 3.53125 27.0390625 C5.53125 28.8515625 5.53125 28.8515625 7.53125 31.0390625 C7.53125 32.0290625 7.53125 33.0190625 7.53125 34.0390625 C1.70199706 38.70246485 -4.44311389 38.80549808 -11.63671875 38.48828125 C-16.67273339 37.89792276 -19.90848002 36.64630174 -23.46875 33.0390625 C-28.72438918 26.30106355 -29.2040038 20.36473054 -28.46875 12.0390625 C-26.97387575 6.52418859 -22.91736841 3.06630846 -18.1640625 0.1484375 C-12.34072889 -2.24841285 -5.87421515 -2.28648248 0 0 Z " fill="#20211F" transform="translate(458.46875,719.9609375)"/>
<path d="M0 0 C3.77452673 3.56880608 5.4559594 6.61913227 5.96533203 11.75170898 C6.04192733 15.50766846 5.99701373 19.24071844 5.8984375 22.99609375 C5.88039063 24.29998047 5.86234375 25.60386719 5.84375 26.94726562 C5.79679707 30.15180284 5.73113214 33.35481265 5.6484375 36.55859375 C2.3484375 36.55859375 -0.9515625 36.55859375 -4.3515625 36.55859375 C-4.6815625 35.56859375 -5.0115625 34.57859375 -5.3515625 33.55859375 C-6.38796875 34.28755859 -6.38796875 34.28755859 -7.4453125 35.03125 C-10.83205238 36.81110926 -13.04553813 36.99164746 -16.8515625 36.99609375 C-17.955 37.01542969 -19.0584375 37.03476562 -20.1953125 37.0546875 C-23.98710723 36.45869996 -25.61069266 35.18628584 -28.3515625 32.55859375 C-30.87116055 29.07914882 -30.79300377 25.75228581 -30.3515625 21.55859375 C-28.39323722 17.81223234 -26.19003693 16.24386508 -22.3515625 14.74609375 C-16.74553838 13.08019676 -11.14436915 13.29394776 -5.3515625 13.55859375 C-5.77154577 9.9500402 -5.77154577 9.9500402 -7.9140625 7.24609375 C-14.07344285 5.50883263 -19.45132541 6.59184805 -25.3515625 8.55859375 C-26.9140625 6.24609375 -26.9140625 6.24609375 -28.3515625 3.55859375 C-27.3515625 0.55859375 -27.3515625 0.55859375 -24.6640625 -1.12890625 C-16.98112326 -4.11318843 -7.32082791 -3.72666579 0 0 Z " fill="#20211F" transform="translate(393.3515625,721.44140625)"/>
<path d="M0 0 C3.3 0 6.6 0 10 0 C10.33 1.32 10.66 2.64 11 4 C11.7425 3.34 12.485 2.68 13.25 2 C18.01822699 -1.17881799 23.51378346 -0.73099314 29 0 C33.35791919 1.94549964 35.8580605 4.44011821 38.1796875 8.62133789 C40.02659772 13.97682785 39.3967404 19.84725504 39.25 25.4375 C39.23195313 26.74138672 39.21390625 28.04527344 39.1953125 29.38867188 C39.14835957 32.59320909 39.08269464 35.7962189 39 39 C35.37 39 31.74 39 28 39 C27.98541748 38.19256348 27.97083496 37.38512695 27.95581055 36.55322266 C27.88153914 32.9099873 27.78480975 29.26768967 27.6875 25.625 C27.66494141 24.35398437 27.64238281 23.08296875 27.61914062 21.7734375 C27.5659668 19.95585938 27.5659668 19.95585938 27.51171875 18.1015625 C27.48553467 16.98088379 27.45935059 15.86020508 27.43237305 14.70556641 C27.28968994 13.81272949 27.14700684 12.91989258 27 12 C23.78563471 9.85708981 21.82573391 9.69974209 18.03515625 9.5390625 C15.04053524 10.2173068 13.92540527 11.64484093 12 14 C11.36264134 16.79057324 11.36264134 16.79057324 11.390625 19.859375 C11.35839844 20.97441406 11.32617188 22.08945312 11.29296875 23.23828125 C11.27169922 24.97658203 11.27169922 24.97658203 11.25 26.75 C11.22035156 27.92433594 11.19070313 29.09867188 11.16015625 30.30859375 C11.08950343 33.2053595 11.04248264 36.1026842 11 39 C7.37 39 3.74 39 0 39 C0 26.13 0 13.26 0 0 Z " fill="#282928" transform="translate(478,719)"/>
<path d="M0 0 C3.3 0 6.6 0 10 0 C10.01458252 0.70084717 10.02916504 1.40169434 10.04418945 2.1237793 C10.11885487 5.31223009 10.21545475 8.49965513 10.3125 11.6875 C10.33505859 12.79029297 10.35761719 13.89308594 10.38085938 15.02929688 C10.41630859 16.09599609 10.45175781 17.16269531 10.48828125 18.26171875 C10.51446533 19.24100342 10.54064941 20.22028809 10.56762695 21.22924805 C11.07648432 24.49013019 11.96578388 26.40648335 14 29 C18.84332682 29.78118175 20.58144934 29.9272777 24.70703125 27.23046875 C28.19376439 22.31815477 27.78154174 17.57300844 27.8125 11.6875 C27.83763672 10.56537109 27.86277344 9.44324219 27.88867188 8.28710938 C27.9474532 5.52438714 27.9837998 2.76324608 28 0 C31.3 0 34.6 0 38 0 C38 12.87 38 25.74 38 39 C34.7 39 31.4 39 28 39 C28 37.68 28 36.36 28 35 C27.0925 35.66 26.185 36.32 25.25 37 C20.0975648 39.91133534 14.74481 40.02752699 9 39 C4.90237698 36.92992055 2.61392889 34.55752918 0.93066406 30.28710938 C-0.04240843 26.85021324 -0.22924689 24.07092328 -0.1953125 20.5078125 C-0.18886719 19.30898438 -0.18242188 18.11015625 -0.17578125 16.875 C-0.15902344 15.6375 -0.14226563 14.4 -0.125 13.125 C-0.11597656 11.86429688 -0.10695313 10.60359375 -0.09765625 9.3046875 C-0.07415808 6.2029296 -0.04130334 3.10156348 0 0 Z " fill="#1F201F" transform="translate(629,719)"/>
<path d="M0 0 C0.99 0.33 1.98 0.66 3 1 C3.67079667 2.91177051 4.34057724 4.82390686 5.00390625 6.73828125 C8.20786323 14.01314827 13.89137387 18.03929386 21 21 C22.33750845 21.65825023 23.67200899 22.32275403 25 23 C25 23.66 25 24.32 25 25 C24.21496094 25.3403125 23.42992187 25.680625 22.62109375 26.03125 C11.73574938 31.05320028 6.17844446 36.78827324 2 48 C1.34 48 0.68 48 0 48 C-0.3403125 47.21496094 -0.680625 46.42992187 -1.03125 45.62109375 C-6.05320028 34.73574938 -11.78827324 29.17844446 -23 25 C-22.505 23.515 -22.505 23.515 -22 22 C-20.845 21.608125 -19.69 21.21625 -18.5 20.8125 C-11.87205714 18.49212503 -6.77660576 14.14004739 -3.3203125 8.03125 C-2.1112735 5.38092721 -1.00053095 2.73511978 0 0 Z " fill="#F9F9F9" transform="translate(967,944)"/>
<path d="M0 0 C-0.875 5.75 -0.875 5.75 -2 8 C-2.69480469 7.83628906 -3.38960937 7.67257812 -4.10546875 7.50390625 C-7.2352816 6.95904004 -10.13798083 6.90261517 -13.3125 6.9375 C-14.38113281 6.94652344 -15.44976563 6.95554687 -16.55078125 6.96484375 C-17.35902344 6.97644531 -18.16726563 6.98804688 -19 7 C-19.33 8.32 -19.66 9.64 -20 11 C-16.61070056 12.95568378 -13.39350826 13.55908984 -9.5625 14.25 C-2.35294247 15.86202466 -2.35294247 15.86202466 0.3125 18.8125 C2.20882474 22.39444673 2.74534498 24.02482679 2 28 C-0.5229626 32.94888818 -2.89828194 34.94621618 -8 37 C-10.74593041 37.28492869 -13.20497517 37.42153306 -15.9375 37.375 C-16.61490234 37.38660156 -17.29230469 37.39820313 -17.99023438 37.41015625 C-23.08317537 37.38085841 -26.52504021 36.20539088 -31 34 C-30.125 28.25 -30.125 28.25 -29 26 C-28.16210938 26.32742188 -27.32421875 26.65484375 -26.4609375 26.9921875 C-22.6687069 28.09647136 -19.56446457 28.19932952 -15.625 28.125 C-13.75714844 28.09792969 -13.75714844 28.09792969 -11.8515625 28.0703125 C-10.44003906 28.03550781 -10.44003906 28.03550781 -9 28 C-9 26.68 -9 25.36 -9 24 C-10.18078125 23.68546875 -11.3615625 23.3709375 -12.578125 23.046875 C-14.13561061 22.6152826 -15.6928918 22.18295204 -17.25 21.75 C-18.02730469 21.54503906 -18.80460938 21.34007812 -19.60546875 21.12890625 C-24.06972068 19.86975827 -27.05229607 18.79858754 -30 15 C-31.43304064 12.13391871 -31.30644155 10.18699217 -31 7 C-25.08929868 -4.59406798 -10.93281098 -4.16488037 0 0 Z " fill="#202120" transform="translate(707,721)"/>
<path d="M0 0 C14.19 0 28.38 0 43 0 C43 2.64 43 5.28 43 8 C37.72 8 32.44 8 27 8 C27 21.53 27 35.06 27 49 C23.7 49 20.4 49 17 49 C17 35.47 17 21.94 17 8 C11.39 8 5.78 8 0 8 C0 5.36 0 2.72 0 0 Z " fill="#191A19" transform="translate(319,708)"/>
<path d="M0 0 C3.3 0 6.6 0 10 0 C10 3.3 10 6.6 10 10 C13.3 10 16.6 10 20 10 C20 12.64 20 15.28 20 18 C16.7 18 13.4 18 10 18 C10.14014682 21.3128323 10.28683615 24.62514408 10.4375 27.9375 C10.47681641 28.88302734 10.51613281 29.82855469 10.55664062 30.80273438 C10.59853516 31.70185547 10.64042969 32.60097656 10.68359375 33.52734375 C10.72025146 34.35999756 10.75690918 35.19265137 10.79467773 36.05053711 C10.79367103 38.00338858 10.79367103 38.00338858 12 39 C14.67058851 39.14115161 17.32432238 39.04247107 20 39 C21.25664978 41.90600261 22 43.79604584 22 47 C17.10065094 48.63311635 12.11263567 48.51126357 7 48 C3.47878161 45.95769333 2.24782323 44.37173484 0 41 C-0.22705078 38.5480957 -0.22705078 38.5480957 -0.1953125 35.67578125 C-0.18886719 34.64775391 -0.18242188 33.61972656 -0.17578125 32.56054688 C-0.15902344 31.48869141 -0.14226563 30.41683594 -0.125 29.3125 C-0.11597656 28.22904297 -0.10695313 27.14558594 -0.09765625 26.02929688 C-0.0740734 23.3526429 -0.04116126 20.67643203 0 18 C-1.98 18 -3.96 18 -6 18 C-6 15.36 -6 12.72 -6 10 C-4.02 10 -2.04 10 0 10 C0 6.7 0 3.4 0 0 Z " fill="#212220" transform="translate(530,710)"/>
<path d="M0 0 C2.97 0 5.94 0 9 0 C9 17.16 9 34.32 9 52 C6.03 52 3.06 52 0 52 C0 34.84 0 17.68 0 0 Z " fill="#171716" transform="translate(411,705)"/>
<path d="M0 0 C3.83304169 1.70357409 5.4359738 3.1591392 7 7 C7.58917111 11.27722925 7.44539482 14.95332218 5.75 18.9375 C2.86340563 22.33955765 0.99958335 22.89095454 -3.4375 23.375 C-7.62750939 22.93394638 -9.093893 21.98913863 -12 19 C-14.26663874 15.97781502 -14.47146315 12.77684401 -14.39453125 9.03515625 C-13.68647817 5.38272403 -11.62465368 3.56216192 -9 1 C-5.93570224 -0.53214888 -3.3834358 -0.22938548 0 0 Z " fill="#E2E4E4" transform="translate(603,727)"/>
<path d="M0 0 C3.3 0 6.6 0 10 0 C10 12.87 10 25.74 10 39 C6.7 39 3.4 39 0 39 C0 26.13 0 13.26 0 0 Z " fill="#202120" transform="translate(560,719)"/>
<path d="M0 0 C8.58 0 17.16 0 26 0 C17.8857645 8.1142355 17.8857645 8.1142355 11.75 8.3125 C7.13439185 8.2603883 4.49512166 7.14560949 1 4 C0.67 2.68 0.34 1.36 0 0 Z " fill="#E1E3E2" transform="translate(440,742)"/>
<path d="M0 0 C3 1.6875 3 1.6875 5 4 C5.33 5.65 5.66 7.3 6 9 C-0.6 9 -7.2 9 -14 9 C-12.28998293 0.44991467 -8.26973315 -1.45936467 0 0 Z " fill="#DCDCDB" transform="translate(454,727)"/>
<path d="M0 0 C1.27617187 0.02320313 2.55234375 0.04640625 3.8671875 0.0703125 C5.78917969 0.09738281 5.78917969 0.09738281 7.75 0.125 C9.23113281 0.15980469 9.23113281 0.15980469 10.7421875 0.1953125 C9.9296875 5.9609375 9.9296875 5.9609375 8.2421875 8.0703125 C4.52654978 9.74234948 0.75776106 9.79222208 -3.2578125 9.1953125 C-5.2578125 7.1953125 -5.2578125 7.1953125 -5.5078125 4.6953125 C-5.1069296 0.68648349 -3.91850422 0.23492232 0 0 Z " fill="#E3E3E1" transform="translate(378.2578125,741.8046875)"/>
<path d="M0 0 C1.875 1.125 1.875 1.125 3 3 C3.39365568 6.14924548 3.52854531 8.11909116 1.875 10.875 C-0.88090884 12.52854531 -2.85075452 12.39365568 -6 12 C-7.875 10.875 -7.875 10.875 -9 9 C-9.39365568 5.85075452 -9.52854531 3.88090884 -7.875 1.125 C-5.11909116 -0.52854531 -3.14924548 -0.39365568 0 0 Z " fill="#242323" transform="translate(568,702)"/>
<path d="M0 0 C0.33 0 0.66 0 1 0 C1 9.24 1 18.48 1 28 C-2.3 28 -5.6 28 -9 28 C-9.33 27.01 -9.66 26.02 -10 25 C-10.99 25 -11.98 25 -13 25 C-12.67 24.34 -12.34 23.68 -12 23 C-10.68 23 -9.36 23 -8 23 C-8 24.32 -8 25.64 -8 27 C-5.36 27 -2.72 27 0 27 C0 18.09 0 9.18 0 0 Z " fill="#4C4C4C" transform="translate(398,730)"/>
<path d="M0 0 C0 0.33 0 0.66 0 1 C-0.96099609 0.98646484 -0.96099609 0.98646484 -1.94140625 0.97265625 C-7.25256812 1.154708 -10.31850327 1.68565733 -14.125 5.5625 C-15.10752936 6.68765459 -16.0750917 7.82702027 -17 9 C-17.33 8.01 -17.66 7.02 -18 6 C-18.66 6 -19.32 6 -20 6 C-16.24159789 -1.51680421 -7.05820216 -0.41723363 0 0 Z " fill="#2B2B2B" transform="translate(507,719)"/>
<path d="M0 0 C0.99 0.33 1.98 0.66 3 1 C-0.3 4.3 -3.6 7.6 -7 11 C-7.33 10.34 -7.66 9.68 -8 9 C-7.23587913 7.87043002 -6.46340197 6.74651022 -5.6875 5.625 C-5.25824219 4.99851562 -4.82898438 4.37203125 -4.38671875 3.7265625 C-3 2 -3 2 0 0 Z " fill="#282926" transform="translate(588,721)"/>
<path d="M0 0 C0.66 0.33 1.32 0.66 2 1 C2 1.66 2 2.32 2 3 C1.01 3.66 0.02 4.32 -1 5 C-1.73343428 8.06556598 -1.73343428 8.06556598 -2 11 C-2.33 11 -2.66 11 -3 11 C-3.36923077 4.6 -3.36923077 4.6 -1.5 1.5625 C-1.005 1.046875 -0.51 0.53125 0 0 Z " fill="#454440" transform="translate(366,739)"/>
</svg>
