<?xml version="1.0" encoding="UTF-8"?>
<svg version="1.1" xmlns="http://www.w3.org/2000/svg" width="1024" height="1024">
<path d="M0 0 C337.92 0 675.84 0 1024 0 C1024 337.92 1024 675.84 1024 1024 C686.08 1024 348.16 1024 0 1024 C0 686.08 0 348.16 0 0 Z " fill="#E8E9E9" transform="translate(0,0)"/>
<path d="M0 0 C1.8845079 0.92357434 3.75747458 1.87090735 5.62109375 2.8359375 C6.7100293 3.39941895 7.79896484 3.96290039 8.92089844 4.54345703 C10.08137695 5.14786621 11.24185547 5.75227539 12.4375 6.375 C13.33595642 6.84169098 13.33595642 6.84169098 14.25256348 7.31781006 C23.20514701 11.96947948 32.08985355 16.73593719 40.92944336 21.59912109 C47.40788387 25.1555648 53.93826734 28.59994983 60.5 32 C68.95802997 36.38305668 77.34018773 40.88617744 85.68652344 45.47802734 C93.64398855 49.84184489 101.68644685 54.03419236 109.765625 58.16796875 C110.6834375 58.64105469 111.60125 59.11414063 112.546875 59.6015625 C113.76648926 60.22538818 113.76648926 60.22538818 115.01074219 60.86181641 C117 62 117 62 119 64 C119.24050903 66.7081604 119.24050903 66.7081604 119.22705078 70.19384766 C119.22682419 72.14564438 119.22682419 72.14564438 119.22659302 74.13687134 C119.21637893 75.56260327 119.20594692 76.98833365 119.1953125 78.4140625 C119.19158295 79.86851813 119.1887357 81.32297627 119.18673706 82.7774353 C119.179096 86.60798056 119.15944357 90.43837446 119.1373291 94.26885986 C119.11688078 98.17661491 119.10773752 102.08439439 119.09765625 105.9921875 C119.07619802 113.66152738 119.04205651 121.33074249 119 129 C118.21332947 129.42100983 117.42665894 129.84201965 116.6161499 130.27578735 C113.63814355 131.86976106 110.66029903 133.46403637 107.68255615 135.0585022 C106.4048681 135.74257908 105.12711953 136.42654297 103.8493042 137.11038208 C95.63548077 141.50623442 87.43244641 145.92090309 79.25 150.375 C78.45094238 150.8095752 77.65188477 151.24415039 76.82861328 151.69189453 C68.84229282 156.0537403 60.93327326 160.53753379 53 165 C52.505 236.775 52.505 236.775 52 310 C38.94476176 317.12103904 25.88927024 324.2325234 12.78320312 331.2578125 C11.73197266 331.82242187 10.68074219 332.38703125 9.59765625 332.96875 C8.62328613 333.48953125 7.64891602 334.0103125 6.64501953 334.546875 C4.37986045 335.79131167 2.19144809 337.10736223 -0.00390625 338.46875 C-3 340 -3 340 -4.81469727 339.78051758 C-7.66873444 338.76115026 -10.2700782 337.43899857 -12.9609375 336.04296875 C-13.82951385 335.59401245 -13.82951385 335.59401245 -14.71563721 335.13598633 C-16.60449134 334.15770286 -18.48986515 333.17292899 -20.375 332.1875 C-21.67752849 331.51008959 -22.98010045 330.83276277 -24.28271484 330.15551758 C-53.97172529 314.68551648 -53.97172529 314.68551648 -61 310 C-61.36914349 307.47376823 -61.36914349 307.47376823 -61.36076355 304.21676636 C-61.36488754 302.98555054 -61.36901154 301.75433472 -61.3732605 300.48580933 C-61.36264237 299.11407254 -61.35173794 297.74233794 -61.34057617 296.37060547 C-61.33973032 294.93190529 -61.34020422 293.49320382 -61.34190369 292.05450439 C-61.34276671 288.14141178 -61.32509156 284.22859336 -61.30418181 280.31556463 C-61.28546598 276.22895531 -61.28366861 272.14234015 -61.28010559 268.05569458 C-61.2707701 260.31376991 -61.24613607 252.57197187 -61.21605712 244.83010304 C-61.1825598 236.01766661 -61.16603887 227.20522423 -61.15097082 218.39274001 C-61.11958775 200.2617548 -61.06679814 182.13088757 -61 164 C-61.92256592 163.70294159 -62.84513184 163.40588318 -63.7956543 163.099823 C-67.33238975 161.88591434 -70.53351079 160.27787316 -73.8125 158.5078125 C-74.77664574 157.99439049 -74.77664574 157.99439049 -75.76026917 157.47059631 C-77.84268956 156.36002321 -79.9214052 155.24271438 -82 154.125 C-83.43856339 153.35558145 -84.87728527 152.58645917 -86.31616211 151.81762695 C-100.28332755 144.34558391 -114.24632887 136.85924065 -128 129 C-128 107.88 -128 86.76 -128 65 C-123.9752153 66.3415949 -121.0398034 67.36966163 -117.48046875 69.36328125 C-116.21396484 70.06517578 -116.21396484 70.06517578 -114.921875 70.78125 C-113.56835938 71.53921875 -113.56835938 71.53921875 -112.1875 72.3125 C-104.01878375 76.83113039 -95.79673327 81.22105992 -87.5 85.5 C-78.65613578 90.0678222 -69.89026346 94.7554071 -61.16796875 99.55078125 C-53.71595453 103.63702281 -46.19311915 107.57585661 -38.64233398 111.47607422 C-33.68044672 114.04796247 -28.75552711 116.6702134 -23.87109375 119.38671875 C-22.8759375 119.93908203 -21.88078125 120.49144531 -20.85546875 121.06054688 C-18.95917248 122.11785262 -17.06697895 123.18256261 -15.1796875 124.25585938 C-8.96218287 127.86275626 -8.96218287 127.86275626 -2 129 C0.38676776 127.9696299 2.32297727 126.93339224 4.5 125.5625 C5.89965181 124.72724331 7.3022761 123.89695747 8.70703125 123.0703125 C9.92253662 122.35343262 9.92253662 122.35343262 11.16259766 121.62207031 C14.49317095 119.71806679 17.87021444 117.90937188 21.26171875 116.1171875 C21.90887848 115.77503708 22.55603821 115.43288666 23.22280884 115.08036804 C25.84993379 113.6935908 28.47832653 112.3092823 31.109375 110.92996216 C39.96635427 106.28173503 48.54676606 101.35267835 57 96 C56.03682861 95.5035498 56.03682861 95.5035498 55.05419922 94.99707031 C43.64213054 89.10762411 32.25221722 83.1904864 21 77 C12.17393572 72.14494264 3.26157558 67.47609338 -5.68798828 62.85327148 C-12.46644265 59.34268287 -19.18793013 55.74388341 -25.875 52.0625 C-38.45890913 45.13562045 -51.22583682 38.56722629 -64 32 C-64 31.34 -64 30.68 -64 30 C-63.38817871 29.6690332 -62.77635742 29.33806641 -62.14599609 28.99707031 C-46.61169884 20.59220012 -46.61169884 20.59220012 -31.09985352 12.14599609 C-29.25397706 11.13874285 -27.4068234 10.13382639 -25.55834961 9.13134766 C-21.64804766 7.00876613 -17.75343634 4.8737487 -13.9140625 2.625 C-13.31553467 2.28130371 -12.71700684 1.93760742 -12.1003418 1.58349609 C-10.5789472 0.70653307 -9.06817481 -0.18879163 -7.55859375 -1.0859375 C-4.1881978 -2.29001789 -3.20642121 -1.47057925 0 0 Z " fill="#58B793" transform="translate(516,307)"/>
<path d="M0 0 C4.0247847 1.3415949 6.9601966 2.36966163 10.51953125 4.36328125 C11.36386719 4.83121094 12.20820313 5.29914063 13.078125 5.78125 C13.98046875 6.2865625 14.8828125 6.791875 15.8125 7.3125 C23.98121625 11.83113039 32.20326673 16.22105992 40.5 20.5 C49.34386422 25.0678222 58.10973654 29.7554071 66.83203125 34.55078125 C73.34386605 38.12148431 79.90645282 41.58281283 86.5 45 C94.43469672 49.11705321 102.33196868 53.29613385 110.1875 57.5625 C111.11433594 58.06330078 112.04117188 58.56410156 112.99609375 59.08007812 C113.8571875 59.54994141 114.71828125 60.01980469 115.60546875 60.50390625 C116.35981201 60.91455322 117.11415527 61.3252002 117.89135742 61.74829102 C118.58720947 62.16135498 119.28306152 62.57441895 120 63 C120.69356976 63.34972775 121.38713951 63.69945551 122.10172653 64.05978107 C124.53908709 66.5509991 124.4794956 68.46310093 124.51632524 71.85742491 C124.49884819 73.06412942 124.49884819 73.06412942 124.48101807 74.29521179 C124.48443577 75.15123751 124.48785347 76.00726323 124.49137473 76.88922912 C124.4979833 79.76853036 124.47592864 82.64690716 124.45410156 85.52612305 C124.45297373 87.58565244 124.45360569 89.64518345 124.45587158 91.70471191 C124.45702215 97.30573533 124.43345726 102.90641809 124.40557575 108.50736213 C124.38061922 114.35700756 124.37822464 120.20666026 124.37347412 126.05635071 C124.36102743 137.13798252 124.32818286 148.21945703 124.28807616 159.30101949 C124.24341115 171.91509533 124.22138467 184.52917857 124.20129442 197.14331377 C124.15945176 223.09562982 124.08906678 249.04780611 124 275 C120.34380333 273.56133556 116.8694044 271.97153261 113.37890625 270.1640625 C112.28835938 269.59977539 111.1978125 269.03548828 110.07421875 268.45410156 C108.91535156 267.85049805 107.75648438 267.24689453 106.5625 266.625 C105.97017578 266.31719604 105.37785156 266.00939209 104.76757812 265.69226074 C96.30161065 261.29125625 87.87778898 256.81712983 79.5 252.25 C78.58162354 251.74936035 77.66324707 251.2487207 76.71704102 250.73291016 C73.39263971 248.90922771 70.15717895 247.10478597 67 245 C66.63085651 242.47376823 66.63085651 242.47376823 66.63923645 239.21676636 C66.63511246 237.98555054 66.63098846 236.75433472 66.6267395 235.48580933 C66.63735763 234.11407254 66.64826206 232.74233794 66.65942383 231.37060547 C66.66026968 229.93190529 66.65979578 228.49320382 66.65809631 227.05450439 C66.65723329 223.14141178 66.67490844 219.22859336 66.69581819 215.31556463 C66.71453402 211.22895531 66.71633139 207.14234015 66.71989441 203.05569458 C66.7292299 195.31376991 66.75386393 187.57197187 66.78394288 179.83010304 C66.8174402 171.01766661 66.83396113 162.20522423 66.84902918 153.39274001 C66.88041225 135.2617548 66.93320186 117.13088757 67 99 C66.07743408 98.70294159 65.15486816 98.40588318 64.2043457 98.099823 C60.66761025 96.88591434 57.46648921 95.27787316 54.1875 93.5078125 C53.22335426 92.99439049 53.22335426 92.99439049 52.23973083 92.47059631 C50.15731044 91.36002321 48.0785948 90.24271438 46 89.125 C44.56143661 88.35558145 43.12271473 87.58645917 41.68383789 86.81762695 C27.71667245 79.34558391 13.75367113 71.85924065 0 64 C0 42.88 0 21.76 0 0 Z " fill="#373D42" transform="translate(388,372)"/>
<path d="M0 0 C3 1 3 1 4.39453125 3.546875 C4.86246094 4.60390625 5.33039062 5.6609375 5.8125 6.75 C10.20891232 15.83305235 16.00891724 18.82429951 25 23 C25 23.66 25 24.32 25 25 C24.21496094 25.3403125 23.42992187 25.680625 22.62109375 26.03125 C11.73574938 31.05320028 6.17844446 36.78827324 2 48 C1.34 48 0.68 48 0 48 C-1.00484204 46.04414675 -2.00373805 44.08523763 -3 42.125 C-3.556875 41.03445313 -4.11375 39.94390625 -4.6875 38.8203125 C-6 36 -6 36 -6 34 C-6.57878906 33.7215625 -7.15757812 33.443125 -7.75390625 33.15625 C-9.91065887 32.04599126 -11.90436496 30.82053127 -13.9375 29.5 C-16.8731932 27.6398131 -19.69709151 26.13537479 -23 25 C-22 22 -22 22 -20.21484375 21.078125 C-19.46332031 20.80484375 -18.71179688 20.5315625 -17.9375 20.25 C-8.92313626 16.42355307 -4.49546126 11.16160432 -0.8125 2.16015625 C-0.544375 1.44730469 -0.27625 0.73445312 0 0 Z " fill="#F8F8F8" transform="translate(967,944)"/>
</svg>
