<?xml version="1.0" encoding="UTF-8"?>
<svg version="1.1" xmlns="http://www.w3.org/2000/svg" width="1024" height="1024">
<path d="M0 0 C337.92 0 675.84 0 1024 0 C1024 337.92 1024 675.84 1024 1024 C686.08 1024 348.16 1024 0 1024 C0 686.08 0 348.16 0 0 Z " fill="#3D4245" transform="translate(0,0)"/>
<path d="M0 0 C3.52799393 1.87651136 6.98318812 3.86669266 10.4375 5.875 C18.39690123 10.44109926 26.40797427 14.85459146 34.5625 19.0625 C44.85597598 24.37934204 55.0316935 29.88969262 65.18896484 35.46142578 C82.7412253 45.0683691 100.3826662 54.51374334 118 64 C118 85.45 118 106.9 118 129 C107.605 134.445 107.605 134.445 97 140 C90.41910774 143.64035765 90.41910774 143.64035765 83.8515625 147.3046875 C76.90403389 151.18409307 69.88973449 154.94200592 62.8815918 158.71044922 C61.90101807 159.23912598 60.92044434 159.76780273 59.91015625 160.3125 C59.03496338 160.78300781 58.15977051 161.25351562 57.25805664 161.73828125 C54.83411646 163.0539842 54.83411646 163.0539842 52 165 C51.53539919 167.62018993 51.53539919 167.62018993 51.60127258 170.74526978 C51.58873444 171.96807144 51.57619629 173.19087311 51.5632782 174.45072937 C51.56445238 175.81301906 51.56591158 177.17530854 51.56762695 178.53759766 C51.55861474 179.96645459 51.54828886 181.39530375 51.53674316 182.82414246 C51.50908317 186.71028393 51.49987654 190.59627909 51.49388909 194.48250628 C51.48452871 198.5411618 51.45832734 202.59970701 51.43388367 206.65829468 C51.39015043 214.34701278 51.36164548 222.03570957 51.33856028 229.72451437 C51.31154508 238.47657351 51.2676314 247.22852206 51.22227156 255.98050237 C51.12932761 273.98694326 51.05769164 291.9934134 51 310 C50.33856932 310.34455262 49.67713863 310.68910524 48.9956646 311.04409885 C45.97067764 312.62018993 42.94602963 314.19693043 39.92138672 315.77368164 C38.88088669 316.31568459 37.84038666 316.85768753 36.76835632 317.41611481 C29.84949467 321.02368571 22.96057079 324.67415652 16.125 328.4375 C14.81982422 329.15196289 14.81982422 329.15196289 13.48828125 329.88085938 C8.44910778 332.64181605 8.44910778 332.64181605 3.44042969 335.45751953 C2.63250977 335.91626465 1.82458984 336.37500977 0.9921875 336.84765625 C0.27144043 337.26152588 -0.44930664 337.67539551 -1.19189453 338.10180664 C-3 339 -3 339 -5 339 C-5 270.69 -5 202.38 -5 132 C-23.29760699 141.86490009 -23.29760699 141.86490009 -41.4375 152 C-44.125212 153.52879031 -46.81300499 155.05709876 -49.50732422 156.57421875 C-51.17982332 157.53086858 -52.83788153 158.51318389 -54.48095703 159.51953125 C-55.65247314 160.22142578 -55.65247314 160.22142578 -56.84765625 160.9375 C-57.52965088 161.35902344 -58.21164551 161.78054688 -58.91430664 162.21484375 C-61.66779129 163.25138907 -63.21115094 162.84003145 -66 162 C-68.61833061 160.66316602 -71.14663942 159.28316348 -73.6875 157.8125 C-75.29581088 156.89916529 -76.90525633 155.98782656 -78.515625 155.078125 C-79.39025391 154.58376953 -80.26488281 154.08941406 -81.16601562 153.58007812 C-87.39284485 150.10833116 -93.699779 146.7809648 -99.99682617 143.4387207 C-102.11394539 142.30688327 -104.21100317 141.13692848 -106.28930664 139.93530273 C-109.11375936 138.35941275 -111.9530231 137.2851065 -115.00561523 136.22290039 C-120.52776618 134.06697192 -125.41205695 131.87963063 -129 127 C-131.95186655 117.61044338 -130.8784588 107.20893078 -130.30462646 97.50384521 C-130.10872216 93.83862787 -130.0231777 90.17091729 -129.92773438 86.50195312 C-129.72511491 79.32781575 -129.40188889 72.16603523 -129 65 C-125.82619088 65.74330623 -123.2456326 66.7822805 -120.3515625 68.30078125 C-119.44027588 68.77700928 -118.52898926 69.2532373 -117.59008789 69.74389648 C-116.61160889 70.26153564 -115.63312988 70.7791748 -114.625 71.3125 C-113.60204834 71.85011963 -112.57909668 72.38773926 -111.52514648 72.94165039 C-101.90588499 78.01402777 -92.36265974 83.22244477 -82.82861328 88.45263672 C-77.89472631 91.15166793 -72.94683129 93.82479054 -68 96.5 C-61.26280073 100.14505992 -54.53002856 103.79782554 -47.80834961 107.47143555 C-44.20142741 109.44209953 -40.59162772 111.40746602 -36.98193359 113.37304688 C-34.25776566 114.85936218 -31.53655894 116.3509873 -28.815979 117.84385681 C-26.440233 119.14552072 -24.061368 120.44140957 -21.68182373 121.7361145 C-19.97370674 122.6677522 -18.26927933 123.60614446 -16.56494141 124.54467773 C-14.99945557 125.39461304 -14.99945557 125.39461304 -13.40234375 126.26171875 C-12.47929443 126.76662842 -11.55624512 127.27153809 -10.60522461 127.79174805 C-7.94864755 129.02381626 -5.92218787 129.78761403 -3 130 C-0.54014462 129.1228929 -0.54014462 129.1228929 1.8515625 127.60546875 C2.77565918 127.06704346 3.69975586 126.52861816 4.65185547 125.97387695 C6.12356201 125.08962036 6.12356201 125.08962036 7.625 124.1875 C9.70171411 122.97414447 11.77986062 121.76323749 13.859375 120.5546875 C14.89513672 119.94979492 15.93089844 119.34490234 16.99804688 118.72167969 C21.22852377 116.29541724 25.53936654 114.04364213 29.875 111.8125 C38.78118283 107.20096083 47.4084983 102.17030192 56 97 C54.73446289 96.32964722 54.73446289 96.32964722 53.44335938 95.64575195 C38.5553857 87.75752848 23.67662477 79.85532166 8.87207031 71.8112793 C1.34524498 67.7231726 -6.19839021 63.66712148 -13.75 59.625 C-14.90701416 59.00560547 -16.06402832 58.38621094 -17.25610352 57.74804688 C-22.1114288 55.14936163 -26.96754131 52.55214857 -31.82373047 49.95507812 C-35.00254041 48.25502045 -38.18098821 46.55428718 -41.35925293 44.85321045 C-43.13145038 43.90498956 -44.90409684 42.95760799 -46.67675781 42.01025391 C-52.81430571 38.72558631 -58.92929665 35.40677837 -65 32 C-65 31.34 -65 30.68 -65 30 C-63.86908936 29.39696045 -63.86908936 29.39696045 -62.71533203 28.78173828 C-44.82787068 19.25322931 -44.82787068 19.25322931 -27.0625 9.5 C-26.35593262 9.1086084 -25.64936523 8.7172168 -24.92138672 8.31396484 C-21.66424611 6.50650295 -18.43160153 4.67068119 -15.23046875 2.765625 C-14.63935303 2.42337891 -14.0482373 2.08113281 -13.43920898 1.72851562 C-11.88375859 0.82748293 -10.33972392 -0.09318094 -8.796875 -1.015625 C-4.95662815 -2.36722026 -3.69071529 -1.72496064 0 0 Z " fill="#FDFDFC" transform="translate(517,305)"/>
<path d="M0 0 C3.42138116 1.43301327 5.5611955 3.24030017 8 6 C8.825 6.825 9.65 7.65 10.5 8.5 C13.12241215 14.61896168 13.27557857 21.94134091 11.26953125 28.32421875 C8.32638784 33.8621335 3.82622165 37.06888281 -2 39 C-9.87651045 39.80068546 -16.6761007 40.08661466 -23 35 C-28.328618 29.23933189 -29.52047985 24.79176372 -29.37890625 17.04296875 C-28.61912273 10.94120211 -25.35443716 6.99066187 -20.8125 3.0625 C-14.84938079 -1.31045409 -7.178266 -1.03522037 0 0 Z " fill="#E7E9E8" transform="translate(608,719)"/>
<path d="M0 0 C5.08770791 3.00099473 7.68096718 8.04290154 9.5 13.5 C9.5 16.14 9.5 18.78 9.5 21.5 C-0.07 21.5 -9.64 21.5 -19.5 21.5 C-16.99943407 26.47621743 -16.99943407 26.47621743 -13.5 28.5 C-7.9699046 28.86867303 -3.73674055 28.24558018 1.5 26.5 C3.975 29.47 3.975 29.47 6.5 32.5 C-0.52440691 37.40074901 -5.87816516 39.72277831 -14.5 38.5 C-20.33084121 36.48131106 -25.25043086 33.91594857 -28.5 28.5 C-31.25367896 22.63830838 -31.3679207 16.85963133 -30.5 10.5 C-28.34665789 5.62624348 -24.48766772 1.51830571 -19.6796875 -0.875 C-13.37114664 -2.68390061 -6.07045886 -2.58023299 0 0 Z " fill="#E5E6E5" transform="translate(460.5,720.5)"/>
<path d="M0 0 C4.03351405 2.45773888 6.19135441 5.16781324 7.6796875 9.6328125 C7.7630679 11.77075775 7.78702497 13.91123259 7.77734375 16.05078125 C7.77412109 17.30439453 7.77089844 18.55800781 7.76757812 19.84960938 C7.75500977 21.81510742 7.75500977 21.81510742 7.7421875 23.8203125 C7.73717067 25.15559731 7.73260809 26.49088391 7.72851562 27.82617188 C7.71671445 31.09509723 7.70025047 34.36393241 7.6796875 37.6328125 C4.3796875 37.6328125 1.0796875 37.6328125 -2.3203125 37.6328125 C-2.6503125 36.6428125 -2.9803125 35.6528125 -3.3203125 34.6328125 C-4.35671875 35.36177734 -4.35671875 35.36177734 -5.4140625 36.10546875 C-8.80080238 37.88532801 -11.01428813 38.06586621 -14.8203125 38.0703125 C-15.92375 38.08964844 -17.0271875 38.10898437 -18.1640625 38.12890625 C-21.95585723 37.53291871 -23.57944266 36.26050459 -26.3203125 33.6328125 C-28.83991055 30.15336757 -28.76175377 26.82650456 -28.3203125 22.6328125 C-26.12029138 19.09706427 -24.13948045 17.2026814 -20.3203125 15.6328125 C-18.21386719 15.40576172 -18.21386719 15.40576172 -15.9921875 15.4375 C-15.19296875 15.44394531 -14.39375 15.45039062 -13.5703125 15.45703125 C-12.7453125 15.47378906 -11.9203125 15.49054687 -11.0703125 15.5078125 C-10.22984375 15.51683594 -9.389375 15.52585937 -8.5234375 15.53515625 C-6.45560646 15.55865433 -4.38792255 15.59452342 -2.3203125 15.6328125 C-3.60463589 12.13576121 -3.60463589 12.13576121 -5.3203125 8.6328125 C-11.6189945 6.53325183 -17.20826344 7.59546281 -23.3203125 9.6328125 C-25.08493933 6.54471555 -25.3203125 5.39969114 -25.3203125 1.6328125 C-17.96209327 -2.67443778 -7.86522644 -3.23862265 0 0 Z " fill="#E8E9E8" transform="translate(391.3203125,720.3671875)"/>
<path d="M0 0 C4.22603726 1.81115883 6.82907211 3.73982577 9.07910156 7.92993164 C10.86866416 13.48489152 10.2534152 19.5053386 10.10546875 25.27734375 C10.08537548 26.64255196 10.06712969 28.00778868 10.05078125 29.37304688 C10.00381308 32.69604509 9.93813601 36.01757367 9.85546875 39.33984375 C6.22546875 39.33984375 2.59546875 39.33984375 -1.14453125 39.33984375 C-1.15911377 38.56793701 -1.17369629 37.79603027 -1.1887207 37.00073242 C-1.26311158 33.50909282 -1.35980215 30.01841885 -1.45703125 26.52734375 C-1.47958984 25.31240234 -1.50214844 24.09746094 -1.52539062 22.84570312 C-1.57856445 21.10063477 -1.57856445 21.10063477 -1.6328125 19.3203125 C-1.65899658 18.24676514 -1.68518066 17.17321777 -1.7121582 16.06713867 C-1.94023746 13.34712348 -1.94023746 13.34712348 -3.43041992 11.4934082 C-5.85506777 9.86166613 -8.2513269 9.92635255 -11.109375 9.84375 C-14.08520093 10.56914327 -15.22046585 11.98853603 -17.14453125 14.33984375 C-17.78188991 17.13041699 -17.78188991 17.13041699 -17.75390625 20.19921875 C-17.78613281 21.31425781 -17.81835938 22.42929687 -17.8515625 23.578125 C-17.87283203 25.31642578 -17.87283203 25.31642578 -17.89453125 27.08984375 C-17.92417969 28.26417969 -17.95382812 29.43851563 -17.984375 30.6484375 C-18.05502782 33.54520325 -18.10204861 36.44252795 -18.14453125 39.33984375 C-21.77453125 39.33984375 -25.40453125 39.33984375 -29.14453125 39.33984375 C-29.14453125 26.46984375 -29.14453125 13.59984375 -29.14453125 0.33984375 C-25.51453125 0.33984375 -21.88453125 0.33984375 -18.14453125 0.33984375 C-17.81453125 1.32984375 -17.48453125 2.31984375 -17.14453125 3.33984375 C-16.15453125 2.67984375 -15.16453125 2.01984375 -14.14453125 1.33984375 C-9.39523238 -1.33581758 -5.14336657 -1.58329499 0 0 Z " fill="#E0E2E1" transform="translate(507.14453125,718.66015625)"/>
<path d="M0 0 C3.63 0 7.26 0 11 0 C11.01458252 0.77190674 11.02916504 1.54381348 11.04418945 2.33911133 C11.11858033 5.83075093 11.2152709 9.3214249 11.3125 12.8125 C11.33505859 14.02744141 11.35761719 15.24238281 11.38085938 16.49414062 C11.41630859 17.65751953 11.45175781 18.82089844 11.48828125 20.01953125 C11.51446533 21.09307861 11.54064941 22.16662598 11.56762695 23.27270508 C11.79192276 25.99868182 11.79192276 25.99868182 13.31713867 27.84643555 C16.19858954 29.82160679 18.63439234 29.41332024 22 29 C24.90717073 26.78136971 25.83981643 25.48055071 27 22 C27.14777936 20.30132812 27.24747066 18.59822511 27.31640625 16.89453125 C27.35830078 15.91162109 27.40019531 14.92871094 27.44335938 13.91601562 C27.48267578 12.89185547 27.52199219 11.86769531 27.5625 10.8125 C27.60568359 9.77673828 27.64886719 8.74097656 27.69335938 7.67382812 C27.79944263 5.11604298 27.90022586 2.55803902 28 0 C31.3 0 34.6 0 38 0 C38 12.87 38 25.74 38 39 C34.7 39 31.4 39 28 39 C27.67 38.01 27.34 37.02 27 36 C26.2575 36.495 25.515 36.99 24.75 37.5 C19.79615442 39.9357388 14.3557956 39.89621747 9 39 C4.66898384 36.68862868 1.82730066 33.54428392 0 29 C-0.22705078 25.88378906 -0.22705078 25.88378906 -0.1953125 22.265625 C-0.18886719 20.97011719 -0.18242188 19.67460938 -0.17578125 18.33984375 C-0.15907193 16.97655981 -0.14214206 15.61327856 -0.125 14.25 C-0.1149634 12.87110015 -0.10583873 11.49219335 -0.09765625 10.11328125 C-0.07408093 6.74201118 -0.0411727 3.37109364 0 0 Z " fill="#E4E6E5" transform="translate(629,719)"/>
<path d="M0 0 C0.66 0 1.32 0 2 0 C2.51046875 1.17755859 2.51046875 1.17755859 3.03125 2.37890625 C8.05320028 13.26425062 13.78827324 18.82155554 25 23 C25 23.66 25 24.32 25 25 C24.21496094 25.3403125 23.42992187 25.680625 22.62109375 26.03125 C11.73574938 31.05320028 6.17844446 36.78827324 2 48 C1.34 48 0.68 48 0 48 C-0.3403125 47.21496094 -0.680625 46.42992187 -1.03125 45.62109375 C-6.05320028 34.73574938 -11.78827324 29.17844446 -23 25 C-23 24.34 -23 23.68 -23 23 C-22.21496094 22.6596875 -21.42992187 22.319375 -20.62109375 21.96875 C-9.73574938 16.94679972 -4.17844446 11.21172676 0 0 Z " fill="#9C9FA0" transform="translate(967,944)"/>
<path d="M0 0 C1.03543945 -0.00483398 1.03543945 -0.00483398 2.09179688 -0.00976562 C6.44289771 0.0356013 10.01945562 0.7243871 14.0625 2.3125 C13.1875 8.0625 13.1875 8.0625 12.0625 10.3125 C11.36769531 10.14878906 10.67289063 9.98507812 9.95703125 9.81640625 C6.8272184 9.27154004 3.92451917 9.21511517 0.75 9.25 C-0.31863281 9.25902344 -1.38726563 9.26804687 -2.48828125 9.27734375 C-3.29652344 9.28894531 -4.10476563 9.30054688 -4.9375 9.3125 C-5.2675 10.6325 -5.5975 11.9525 -5.9375 13.3125 C-2.8135711 15.08712628 -0.10753657 15.70092635 3.4375 16.1875 C8.32624124 17.01100454 11.27886999 18.12628525 15.0625 21.3125 C16.6172669 24.42203379 16.34894437 26.87516761 16.0625 30.3125 C13.75377514 34.75893305 11.5668344 37.17170371 7.0625 39.3125 C4.35727475 39.60326183 1.9443006 39.74042826 -0.75 39.6875 C-1.45833984 39.68169922 -2.16667969 39.67589844 -2.89648438 39.66992188 C-8.2148131 39.53781987 -12.21096664 38.67576668 -16.9375 36.3125 C-16.6075 34.0025 -16.2775 31.6925 -15.9375 29.3125 C-11.9375 29.3125 -11.9375 29.3125 -8.9375 30.3125 C-6.36484182 30.38279121 -3.82108569 30.40620832 -1.25 30.375 C-0.54810547 30.37048828 0.15378906 30.36597656 0.87695312 30.36132812 C2.60550538 30.34956927 4.33401365 30.33163454 6.0625 30.3125 C5.7325 28.9925 5.4025 27.6725 5.0625 26.3125 C3.80953125 26.02117188 2.5565625 25.72984375 1.265625 25.4296875 C-0.38572349 25.01685038 -2.03674895 24.60271959 -3.6875 24.1875 C-4.5125 23.99929688 -5.3375 23.81109375 -6.1875 23.6171875 C-10.5377894 22.49453217 -12.49047078 21.83769077 -15.484375 18.3203125 C-17.15235241 14.86777862 -17.56752698 13.09266188 -16.9375 9.3125 C-12.90500562 1.69556617 -8.36013077 -0.1940606 0 0 Z " fill="#E6E7E6" transform="translate(692.9375,718.6875)"/>
<path d="M0 0 C13.86 0 27.72 0 42 0 C42 2.64 42 5.28 42 8 C36.72 8 31.44 8 26 8 C26 21.53 26 35.06 26 49 C22.7 49 19.4 49 16 49 C16 35.47 16 21.94 16 8 C10.72 8 5.44 8 0 8 C0 5.36 0 2.72 0 0 Z " fill="#ECEDED" transform="translate(320,708)"/>
<path d="M0 0 C3.3 0 6.6 0 10 0 C10 3.3 10 6.6 10 10 C13.3 10 16.6 10 20 10 C20 12.31 20 14.62 20 17 C16.7 17 13.4 17 10 17 C10.11377842 20.10495317 10.2405278 23.2084334 10.375 26.3125 C10.4059375 27.19357422 10.436875 28.07464844 10.46875 28.98242188 C10.50742187 29.82998047 10.54609375 30.67753906 10.5859375 31.55078125 C10.63306885 32.72120972 10.63306885 32.72120972 10.68115234 33.9152832 C10.89587889 36.30155768 10.89587889 36.30155768 13 39 C14.155 39 15.31 39 16.5 39 C17.655 39 18.81 39 20 39 C22.1519437 42.22791555 22.20086443 43.28400809 22 47 C19.20268195 48.39865903 16.80715441 48.24537267 13.6875 48.3125 C12.55699219 48.34988281 11.42648437 48.38726563 10.26171875 48.42578125 C6.33121161 47.91269709 4.79801156 46.74848923 2 44 C-0.23413013 40.64880481 -0.23847762 39.5822245 -0.1953125 35.67578125 C-0.18886719 34.64775391 -0.18242188 33.61972656 -0.17578125 32.56054688 C-0.15902344 31.48869141 -0.14226563 30.41683594 -0.125 29.3125 C-0.11597656 28.22904297 -0.10695313 27.14558594 -0.09765625 26.02929688 C-0.0740734 23.3526429 -0.04116126 20.67643203 0 18 C-1.98 18 -3.96 18 -6 18 C-6 15.36 -6 12.72 -6 10 C-4.02 10 -2.04 10 0 10 C0 6.7 0 3.4 0 0 Z " fill="#E8E9E9" transform="translate(530,710)"/>
<path d="M0 0 C3.3 0 6.6 0 10 0 C10 17.82 10 35.64 10 54 C6.7 54 3.4 54 0 54 C0 36.18 0 18.36 0 0 Z " fill="#E8E9E9" transform="translate(411,704)"/>
<path d="M0 0 C3.3 0 6.6 0 10 0 C10 12.87 10 25.74 10 39 C6.7 39 3.4 39 0 39 C0 26.13 0 13.26 0 0 Z " fill="#E7E9E8" transform="translate(560,719)"/>
<path d="M0 0 C2.97361628 1.78152067 5.42653612 3.85307225 7 7 C7.67076847 11.23803713 8.12571636 15.29639363 5.68359375 18.9921875 C2.6390053 21.83925231 0.52381587 22.90968692 -3.625 23.625 C-8.23172275 22.77190319 -10.58830979 20.94947695 -13.3125 17.1875 C-14.33529387 13.93315587 -14.35124367 11.39535546 -14 8 C-10.47504818 1.55784668 -7.46085198 -0.88518583 0 0 Z " fill="#3F4549" transform="translate(603,727)"/>
<path d="M0 0 C3.78533014 2.89940181 4.83377246 4.33508985 6 9 C-0.6 9 -7.2 9 -14 9 C-13 4 -13 4 -10.9375 1.6875 C-7.16630665 -0.47893022 -4.2536388 -1.00540553 0 0 Z " fill="#494F52" transform="translate(454,727)"/>
<path d="M0 0 C0.98484375 0.02707031 1.9696875 0.05414062 2.984375 0.08203125 C3.73203125 0.11683594 4.4796875 0.15164063 5.25 0.1875 C5.55719041 3.56659451 5.59529892 5.59107459 3.875 8.5625 C-0.08670191 11.01498213 -4.19771456 10.86954973 -8.75 10.1875 C-9.41 9.5275 -10.07 8.8675 -10.75 8.1875 C-10.59457901 5.15679076 -10.25194796 3.67556921 -8.0546875 1.5390625 C-5.16813427 -0.15372973 -3.32043254 -0.11858688 0 0 Z " fill="#494E51" transform="translate(383.75,740.8125)"/>
<path d="M0 0 C0.99 0.66 1.98 1.32 3 2 C3.4375 5.4375 3.4375 5.4375 3 9 C0.89172636 11.42061048 -0.40345478 11.9127007 -3.5625 12.375 C-6 12 -6 12 -7.8125 10.875 C-9.55198782 8.12844028 -9.39769128 6.18153026 -9 3 C-6.78229215 -0.69617975 -4.0271794 -0.41949785 0 0 Z " fill="#E5E6E5" transform="translate(568,702)"/>
<path d="M0 0 C1.9375 0.625 1.9375 0.625 4 2 C4.33 3.98 4.66 5.96 5 8 C0.05 8 -4.9 8 -10 8 C-10 7.67 -10 7.34 -10 7 C-4.06 6.505 -4.06 6.505 2 6 C1.34 4.02 0.68 2.04 0 0 Z " fill="#696F72" transform="translate(384,728)"/>
<path d="M0 0 C0.68707555 2.49064888 1 4.37886292 1 7 C-0.32 6.67 -1.64 6.34 -3 6 C-3 5.34 -3 4.68 -3 4 C-5.97 3.505 -5.97 3.505 -9 3 C-9 2.67 -9 2.34 -9 2 C-6.94921875 1.77213542 -4.8984375 1.54427083 -2.84765625 1.31640625 C-0.98859771 1.18113386 -0.98859771 1.18113386 0 0 Z " fill="#C7C9CA" transform="translate(386,749)"/>
<path d="M0 0 C1.65 1.65 3.3 3.3 5 5 C3.125 5.625 3.125 5.625 1 6 C0.34 5.34 -0.32 4.68 -1 4 C-0.625 1.875 -0.625 1.875 0 0 Z " fill="#EDECEC" transform="translate(560,707)"/>
</svg>
