<?xml version="1.0" encoding="UTF-8"?>
<svg version="1.1" xmlns="http://www.w3.org/2000/svg" width="1024" height="1024">
<path d="M0 0 C337.92 0 675.84 0 1024 0 C1024 337.92 1024 675.84 1024 1024 C686.08 1024 348.16 1024 0 1024 C0 686.08 0 348.16 0 0 Z " fill="#FDFEFE" transform="translate(0,0)"/>
<path d="M0 0 C5.74975049 4.80314523 9.28270513 9.8285458 10.2578125 17.359375 C10.6118444 24.70553696 10.21643284 31.33700636 5.75 37.4375 C5.193125 38.324375 4.63625 39.21125 4.0625 40.125 C-3.2137957 47.4012957 -11.30635087 48.72664134 -21.17114258 48.7565918 C-28.52409547 48.62688795 -32.4477859 46.78353971 -37.9375 42.1875 C-44.64607289 34.20973765 -46.8227132 27.71011393 -46.58984375 17.24609375 C-45.96134443 10.20256686 -42.94410092 5.74936218 -37.8125 1.0625 C-26.5723226 -7.73946104 -11.86923057 -7.98064456 0 0 Z " fill="#3B454A" transform="translate(653.25,485.5625)"/>
<path d="M0 0 C5.66803697 4.66224852 8.99963172 9.28368313 10.80078125 16.48828125 C10.80078125 20.11828125 10.80078125 23.74828125 10.80078125 27.48828125 C-2.06921875 27.48828125 -14.93921875 27.48828125 -28.19921875 27.48828125 C-26.07891373 32.78904379 -24.23216097 34.97181014 -19.19921875 37.48828125 C-11.58736327 38.28199609 -5.87530629 37.18073461 0.80078125 33.48828125 C1.83609851 34.38855713 2.8537229 35.3092116 3.86328125 36.23828125 C4.43175781 36.74875 5.00023437 37.25921875 5.5859375 37.78515625 C6.80078125 39.48828125 6.80078125 39.48828125 6.7265625 41.5234375 C5.54240075 44.03665844 4.31357702 44.78946026 1.92578125 46.17578125 C1.22710937 46.59214844 0.5284375 47.00851562 -0.19140625 47.4375 C-7.41272338 51.21674963 -18.567756 50.71190227 -26.36328125 48.65234375 C-33.4681868 45.37484862 -38.96216584 39.84791931 -42.13671875 32.67578125 C-44.34740629 25.68671318 -44.14413661 18.03133057 -41.16015625 11.32421875 C-37.14590531 3.65471492 -31.63514479 -1.44124642 -23.18359375 -4.16015625 C-15.02147703 -5.60620055 -6.91379417 -4.75246597 0 0 Z " fill="#3E474C" transform="translate(449.19921875,484.51171875)"/>
<path d="M0 0 C4.51507072 3.62920241 6.35171925 8.0382926 7.8515625 13.48828125 C8.01429372 16.34500166 8.08579277 19.09713466 8.046875 21.94921875 C8.0440451 22.73978668 8.04121521 23.53035461 8.03829956 24.34487915 C8.02717205 26.85117209 8.00208176 29.3570977 7.9765625 31.86328125 C7.96652308 33.57030731 7.95739891 35.27733902 7.94921875 36.984375 C7.92725713 41.15248365 7.89277921 45.32032033 7.8515625 49.48828125 C3.2315625 49.48828125 -1.3884375 49.48828125 -6.1484375 49.48828125 C-6.6434375 47.50828125 -6.6434375 47.50828125 -7.1484375 45.48828125 C-7.9734375 46.14828125 -8.7984375 46.80828125 -9.6484375 47.48828125 C-15.7440664 50.98577324 -23.38590619 50.1890617 -30.1484375 49.48828125 C-34.61449413 48.11410998 -37.78637841 45.5562719 -40.1484375 41.48828125 C-41.60522248 37.11792631 -41.75356917 33.05168598 -41.1484375 28.48828125 C-37.86620061 22.77083635 -33.34565813 20.46283663 -27.1484375 18.48828125 C-23.60251462 18.05305601 -20.15109784 18.10226633 -16.5859375 18.23828125 C-15.21598633 18.26535156 -15.21598633 18.26535156 -13.81835938 18.29296875 C-11.59390236 18.33955424 -9.37176783 18.4049264 -7.1484375 18.48828125 C-8.25859693 13.55848724 -8.25859693 13.55848724 -11.0859375 9.55078125 C-16.45708832 7.68732076 -22.18681908 7.38483955 -27.5703125 9.390625 C-29.4628459 10.3610664 -31.31010875 11.41870816 -33.1484375 12.48828125 C-33.8084375 12.48828125 -34.4684375 12.48828125 -35.1484375 12.48828125 C-36.77163226 8.81844963 -38.25538 5.40732972 -39.1484375 1.48828125 C-37.73365615 0.83832828 -36.31652263 0.19349403 -34.8984375 -0.44921875 C-34.10953125 -0.80886719 -33.320625 -1.16851562 -32.5078125 -1.5390625 C-22.90467826 -5.49797049 -8.93850816 -5.45218281 0 0 Z " fill="#40484D" transform="translate(358.1484375,484.51171875)"/>
<path d="M0 0 C5.98906747 3.40554817 9.67175362 6.37644541 12.37817383 12.71386719 C14.25145864 19.88603333 13.58534511 27.51831116 13.4375 34.875 C13.41740621 36.61651594 13.39916053 38.35805424 13.3828125 40.09960938 C13.33903994 44.33779777 13.27017248 48.57489921 13.1875 52.8125 C8.2375 52.8125 3.2875 52.8125 -1.8125 52.8125 C-1.82667969 50.34394531 -1.84085937 47.87539063 -1.85546875 45.33203125 C-1.88611228 42.93239816 -1.92519466 40.53303997 -1.96508789 38.13354492 C-1.98823666 36.47023288 -2.00265631 34.8067749 -2.00805664 33.14331055 C-2.0173698 30.74696249 -2.05840551 28.35289941 -2.10546875 25.95703125 C-2.1015361 25.2172554 -2.09760345 24.47747955 -2.09355164 23.71528625 C-2.20465528 19.75403278 -2.68180935 17.97584652 -5.18676758 14.8449707 C-8.97188 11.91507197 -11.58229567 12.1083251 -16.21484375 12.3203125 C-20.03673209 13.04445976 -21.60859853 14.68438178 -23.8125 17.8125 C-26.0818141 21.41224123 -26.11953893 24.55603123 -26.2265625 28.765625 C-26.24592865 29.42584656 -26.2652948 30.08606812 -26.2852478 30.76629639 C-26.34479349 32.86490153 -26.39132722 34.96356228 -26.4375 37.0625 C-26.47570294 38.4896066 -26.51475602 39.91669072 -26.5546875 41.34375 C-26.65206786 44.83321305 -26.73182976 48.32245085 -26.8125 51.8125 C-31.1025 51.8125 -35.3925 51.8125 -39.8125 51.8125 C-39.8125 34.6525 -39.8125 17.4925 -39.8125 -0.1875 C-35.5225 -0.1875 -31.2325 -0.1875 -26.8125 -0.1875 C-26.4825 1.7925 -26.1525 3.7725 -25.8125 5.8125 C-24.925625 5.02875 -24.03875 4.245 -23.125 3.4375 C-16.52389954 -2.39603064 -8.11674233 -2.52816564 0 0 Z " fill="#3E474B" transform="translate(511.8125,481.1875)"/>
<path d="M0 0 C4.62 0 9.24 0 14 0 C14.03738281 2.24039062 14.07476563 4.48078125 14.11328125 6.7890625 C14.15957397 8.97356589 14.21077914 11.15790316 14.26245117 13.34228516 C14.29557926 14.85324904 14.32364855 16.36433307 14.34643555 17.87548828 C14.38020681 20.05553082 14.43252896 22.23448439 14.48828125 24.4140625 C14.51446533 25.7232666 14.54064941 27.0324707 14.56762695 28.38134766 C15.14104545 33.18044925 16.57473905 36.57473905 20 40 C24.19020827 40.63388219 27.95946293 40.42978705 31.875 38.8125 C35.42089543 35.78805978 36.8584074 33.14785148 37.43237305 28.49487305 C37.45855713 27.18043213 37.48474121 25.86599121 37.51171875 24.51171875 C37.52966995 23.80852005 37.54762115 23.10532135 37.56611633 22.3808136 C37.6200048 20.14976883 37.65404412 17.9189353 37.6875 15.6875 C37.72069224 14.16859053 37.75518367 12.64970886 37.79101562 11.13085938 C37.87815023 7.4205462 37.93839492 3.71117502 38 0 C42.62 0 47.24 0 52 0 C52 17.49 52 34.98 52 53 C47.71 53 43.42 53 39 53 C38.505 50.03 38.505 50.03 38 47 C37.278125 47.61875 36.55625 48.2375 35.8125 48.875 C30.81863957 52.64813899 26.79350073 53.31225075 20.5625 53.375 C19.28503906 53.40335938 18.00757813 53.43171875 16.69140625 53.4609375 C11.36202614 52.79546993 7.60551751 50.2109309 4.25 46.0625 C0.09394371 40.4056456 -0.28248877 36.00096655 -0.1953125 29.19921875 C-0.1924826 28.36284378 -0.18965271 27.52646881 -0.18673706 26.66474915 C-0.1755832 24.00551774 -0.15048763 21.34662882 -0.125 18.6875 C-0.11496399 16.87956217 -0.10583923 15.07161904 -0.09765625 13.26367188 C-0.07565959 8.84231688 -0.04116294 4.42121642 0 0 Z " fill="#3D464B" transform="translate(674,481)"/>
<path d="M0 0 C19.8 0 39.6 0 60 0 C60 3.96 60 7.92 60 12 C52.41 12 44.82 12 37 12 C37 30.81 37 49.62 37 69 C32.38 69 27.76 69 23 69 C23 50.19 23 31.38 23 12 C15.41 12 7.82 12 0 12 C0 8.04 0 4.08 0 0 Z " fill="#3B4448" transform="translate(254,465)"/>
<path d="M0 0 C0.84240234 -0.00636475 1.68480469 -0.01272949 2.55273438 -0.01928711 C8.48897112 0.10024606 13.48732506 1.32289287 19 3.5 C18.44683414 7.46435532 17.54379132 10.8162378 16 14.5 C15.32195313 14.2834375 14.64390625 14.066875 13.9453125 13.84375 C7.74377921 11.98844364 1.49078517 10.31985724 -5 11.5 C-7.33218625 12.66151577 -7.33218625 12.66151577 -9 14.5 C-9 15.82 -9 17.14 -9 18.5 C-3.79457678 20.35277776 1.275785 21.80799068 6.6875 22.9375 C12.9554925 24.34907824 16.75094869 25.72617006 20.875 30.8125 C22.79056603 35.38857441 22.54032846 38.99908762 20.875 43.625 C17.3292155 49.06186957 13.21458833 51.89118332 7 53.5 C3.74606162 53.82694902 0.51884927 53.88079529 -2.75 53.875 C-3.63727783 53.87411377 -4.52455566 53.87322754 -5.4387207 53.87231445 C-11.66853878 53.75962745 -17.81066546 53.33113834 -23 49.5 C-24 46.5 -24 46.5 -23.22265625 44.45703125 C-22.83980469 43.74933594 -22.45695313 43.04164063 -22.0625 42.3125 C-21.49208984 41.23935547 -21.49208984 41.23935547 -20.91015625 40.14453125 C-20.60980469 39.60183594 -20.30945313 39.05914063 -20 38.5 C-18.948125 38.933125 -18.948125 38.933125 -17.875 39.375 C-16.92625 39.74625 -15.9775 40.1175 -15 40.5 C-14.154375 40.87125 -13.30875 41.2425 -12.4375 41.625 C-6.86828536 43.04261827 -0.02368867 43.79729217 5.3671875 41.484375 C5.90601563 41.15953125 6.44484375 40.8346875 7 40.5 C7 38.85 7 37.2 7 35.5 C6.39526855 35.36948242 5.79053711 35.23896484 5.16748047 35.10449219 C2.40026501 34.49944527 -0.36220707 33.87491745 -3.125 33.25 C-4.07632813 33.04503906 -5.02765625 32.84007812 -6.0078125 32.62890625 C-12.68790131 31.09805256 -17.85420031 29.64717288 -21.875 23.75 C-23.82975446 18.10293155 -23.68636949 14.26068695 -21.5625 8.8125 C-16.19505212 0.87959398 -8.97954348 0.05846915 0 0 Z " fill="#3D474B" transform="translate(761,480.5)"/>
<path d="M0 0 C4.62 0 9.24 0 14 0 C14 4.62 14 9.24 14 14 C18.62 14 23.24 14 28 14 C28 17.63 28 21.26 28 25 C23.38 25 18.76 25 14 25 C14.11358571 29.27142048 14.24034641 33.54173682 14.375 37.8125 C14.4059375 39.02744141 14.436875 40.24238281 14.46875 41.49414062 C14.50742187 42.65751953 14.54609375 43.82089844 14.5859375 45.01953125 C14.63306885 46.62985229 14.63306885 46.62985229 14.68115234 48.27270508 C14.81592307 51.2160765 14.81592307 51.2160765 17 54 C19.66653905 54.36460453 19.66653905 54.36460453 22.625 54.1875 C23.62789062 54.16042969 24.63078125 54.13335938 25.6640625 54.10546875 C26.82035156 54.05326172 26.82035156 54.05326172 28 54 C28.99 57.3 29.98 60.6 31 64 C26.77027886 66.11486057 23.7100479 66.36658707 19.125 66.375 C18.43019531 66.39949219 17.73539063 66.42398438 17.01953125 66.44921875 C11.8374066 66.47849629 8.98907672 65.23262958 5 62 C0.59503848 57.11882643 -0.12597369 53.84797503 -0.09765625 47.36328125 C-0.09443359 46.06455078 -0.09121094 44.76582031 -0.08789062 43.42773438 C-0.07953531 42.05598892 -0.07107037 40.68424413 -0.0625 39.3125 C-0.05748335 37.92903805 -0.05292073 36.54557437 -0.04882812 35.16210938 C-0.03702529 31.77469605 -0.02056019 28.38736967 0 25 C-2.64 25 -5.28 25 -8 25 C-8 21.37 -8 17.74 -8 14 C-5.36 14 -2.72 14 0 14 C0 9.38 0 4.76 0 0 Z " fill="#3E484D" transform="translate(541,468)"/>
<path d="M0 0 C4.62 0 9.24 0 14 0 C14 24.42 14 48.84 14 74 C9.38 74 4.76 74 0 74 C0 49.58 0 25.16 0 0 Z " fill="#40494D" transform="translate(381,460)"/>
<path d="M0 0 C4.62 0 9.24 0 14 0 C14 17.49 14 34.98 14 53 C9.38 53 4.76 53 0 53 C0 35.51 0 18.02 0 0 Z " fill="#3F494D" transform="translate(581,481)"/>
<path d="M0 0 C4.40802625 2.16394016 7.23139226 4.38196867 9 9 C9.68516289 15.22356293 9.72833565 20.72890477 6 26 C2.32297423 29.40124883 -0.28622563 30.83832317 -5.3125 31.3125 C-10.49723861 30.87311537 -13.41601755 28.80246279 -16.8125 24.9375 C-19.7937072 20.0734251 -19.94422979 14.5080071 -19 9 C-14.14864069 0.98636721 -9.08908341 -1.00524425 0 0 Z " fill="#F8F9F8" transform="translate(640,492)"/>
<path d="M0 0 C3.91075925 1.98968453 5.57689098 3.36533646 8 7 C8 8.32 8 9.64 8 11 C-0.91 11 -9.82 11 -19 11 C-14.63414725 0.81301026 -10.83471684 -1.60455484 0 0 Z " fill="#FAFAFA" transform="translate(439,492)"/>
<path d="M0 0 C0.75732422 0.00966797 1.51464844 0.01933594 2.29492188 0.02929688 C3.08060547 0.05443359 3.86628906 0.07957031 4.67578125 0.10546875 C5.87170898 0.12577148 5.87170898 0.12577148 7.09179688 0.14648438 C9.05758092 0.18179786 11.02301707 0.23560428 12.98828125 0.29296875 C13.21411133 6.30493164 13.21411133 6.30493164 12.98828125 8.29296875 C9.33887119 12.13964422 6.30324446 13.18860659 1.05078125 13.60546875 C-1.97271176 13.55535561 -2.88436329 13.3757498 -5.51171875 11.66796875 C-7.44376107 8.60890174 -7.54151753 6.85018915 -7.01171875 3.29296875 C-4.87439732 0.50492716 -3.46999525 -0.07827057 0 0 Z " fill="#F8F8F7" transform="translate(338.01171875,511.70703125)"/>
<path d="M0 0 C4.4297642 0.79102932 5.89210172 1.98974785 8.5 5.625 C9.125 8.625 9.125 8.625 8.5 11.625 C5.89210172 15.26025215 4.4297642 16.45897068 0 17.25 C-4.4297642 16.45897068 -5.89210172 15.26025215 -8.5 11.625 C-9.125 8.625 -9.125 8.625 -8.5 5.625 C-5.89210172 1.98974785 -4.4297642 0.79102932 0 0 Z " fill="#3D464A" transform="translate(588.5,456.375)"/>
<path d="M0 0 C0.66 0 1.32 0 2 0 C1.8125 1.875 1.8125 1.875 1 4 C-1.5625 5.25 -1.5625 5.25 -4 6 C-2.84826645 3.53199953 -1.95216435 1.95216435 0 0 Z " fill="#475053" transform="translate(349,527)"/>
</svg>
