<?xml version="1.0" encoding="UTF-8"?>
<svg version="1.1" xmlns="http://www.w3.org/2000/svg" width="1024" height="1024">
<path d="M0 0 C337.92 0 675.84 0 1024 0 C1024 337.92 1024 675.84 1024 1024 C686.08 1024 348.16 1024 0 1024 C0 686.08 0 348.16 0 0 Z " fill="#FDFEFE" transform="translate(0,0)"/>
<path d="M0 0 C1.56929161 0.7255251 3.11748849 1.49750174 4.6484375 2.30078125 C5.55940186 2.77684814 6.47036621 3.25291504 7.40893555 3.7434082 C8.38773682 4.2612085 9.36653809 4.77900879 10.375 5.3125 C11.40085205 5.85156982 12.4267041 6.39063965 13.48364258 6.94604492 C21.15535278 10.99100015 28.77895598 15.12084686 36.38330078 19.29077148 C43.81474753 23.36424217 51.27685316 27.3786306 58.75 31.375 C59.94052069 32.01186352 61.13103175 32.64874506 62.3215332 33.28564453 C62.91168716 33.60136414 63.50184113 33.91708374 64.10987854 34.24237061 C64.700103 34.55813049 65.29032745 34.87389038 65.8984375 35.19921875 C66.48902451 35.51513977 67.07961151 35.83106079 67.68809509 36.15655518 C73.92162317 39.49172654 80.14942302 42.83751082 86.375 46.1875 C87.79570801 46.95102783 87.79570801 46.95102783 89.24511719 47.72998047 C99.8549498 53.44173193 110.42117717 59.229733 121 65 C121 86.45 121 107.9 121 130 C111.76 134.95 102.52 139.9 93 145 C87.66029352 147.98864169 82.32632313 150.98757135 77 154 C69.74 157.96 62.48 161.92 55 166 C54.505 237.775 54.505 237.775 54 311 C46.08 315.29 38.16 319.58 30 324 C27.586875 325.31097656 25.17375 326.62195313 22.6875 327.97265625 C21.718125 328.49923828 20.74875 329.02582031 19.75 329.56835938 C17.85366368 330.59868415 15.95786228 331.62999388 14.0625 332.66210938 C13.11375 333.17708984 12.165 333.69207031 11.1875 334.22265625 C10.37667969 334.66359619 9.56585937 335.10453613 8.73046875 335.55883789 C5.18378274 337.43080566 1.58700376 339.20649812 -2 341 C-2 272.36 -2 203.72 -2 133 C-24.10915425 145.10524037 -24.10915425 145.10524037 -45.79296875 157.94921875 C-46.94889526 158.65485962 -46.94889526 158.65485962 -48.12817383 159.37475586 C-49.58755757 160.26801986 -51.03975151 161.17317765 -52.4831543 162.09204102 C-57.35177045 165.05792433 -57.35177045 165.05792433 -60.3605957 164.7890625 C-63.41516545 163.87588431 -65.96733868 162.60151488 -68.76953125 161.078125 C-69.89431885 160.470896 -71.01910645 159.86366699 -72.17797852 159.23803711 C-73.38955745 158.5754893 -74.60106293 157.91280717 -75.8125 157.25 C-77.06339758 156.57175073 -78.31462246 155.89410478 -79.56616211 155.21704102 C-82.12744786 153.83007006 -84.68666536 152.43939464 -87.24414062 151.04541016 C-90.75757875 149.13066082 -94.27641598 147.22603419 -97.796875 145.32421875 C-107.2097588 140.23772244 -116.60710505 135.12339725 -126 130 C-126 108.88 -126 87.76 -126 66 C-122.44130853 67.42347659 -119.1953629 68.86174893 -115.81640625 70.6171875 C-114.81875244 71.13498779 -113.82109863 71.65278809 -112.79321289 72.1862793 C-111.72707764 72.74355713 -110.66094238 73.30083496 -109.5625 73.875 C-108.44286865 74.45870361 -107.3232373 75.04240723 -106.16967773 75.64379883 C-98.38007367 79.71908161 -90.64877603 83.89073622 -82.94555664 88.12646484 C-74.34511319 92.84256654 -65.67441561 97.4220107 -57 102 C-47.2244631 107.16170547 -37.45634899 112.33384452 -27.75 117.625 C-26.88060791 118.09768311 -26.01121582 118.57036621 -25.11547852 119.05737305 C-21.27932809 121.15529705 -17.47804542 123.29020705 -13.73046875 125.54296875 C-13.08174805 125.92952637 -12.43302734 126.31608398 -11.76464844 126.71435547 C-10.09365753 127.7186469 -8.43481804 128.74308549 -6.77734375 129.76953125 C-3.47471325 131.23272198 -2.41374952 130.95068062 1 130 C3.24607908 128.96435229 3.24607908 128.96435229 5.46484375 127.62109375 C6.33318848 127.11940674 7.2015332 126.61771973 8.09619141 126.10083008 C9.03382324 125.55193115 9.97145508 125.00303223 10.9375 124.4375 C20.57857544 118.88918501 30.31038872 113.54591484 40.125 108.3125 C40.78088104 107.96130096 41.43676208 107.61010193 42.11251831 107.2482605 C43.99269772 106.24192618 45.87485863 105.23941288 47.7578125 104.23828125 C48.8420752 103.66118408 49.92633789 103.08408691 51.04345703 102.48950195 C53.65906125 101.17176444 56.26234924 100.03493463 59 99 C59 98.34 59 97.68 59 97 C58.12811035 96.73082764 57.2562207 96.46165527 56.35791016 96.18432617 C53.1183345 95.04173627 50.28955045 93.68646384 47.2734375 92.05078125 C45.62456543 91.16156982 45.62456543 91.16156982 43.94238281 90.25439453 C42.75324214 89.60712036 41.56411492 88.95982148 40.375 88.3125 C39.12364899 87.63604408 37.87201592 86.96010969 36.62011719 86.28466797 C34.02459716 84.88373047 31.43029658 83.48057387 28.83691406 82.07568359 C22.98444694 78.90711413 17.11708818 75.76639991 11.25 72.625 C10.10853516 72.01317871 8.96707031 71.40135742 7.79101562 70.77099609 C0.18957893 66.69909934 -7.42208267 62.64682795 -15.03979492 58.60546875 C-17.74392914 57.17085744 -20.44722446 55.73468699 -23.1496582 54.296875 C-24.47867715 53.58984143 -25.80769733 52.88281016 -27.13671875 52.17578125 C-27.78939224 51.82850983 -28.44206573 51.4812384 -29.11451721 51.1234436 C-33.02561151 49.04415834 -36.94276013 46.97685862 -40.86505127 44.91877747 C-42.72481299 43.9414683 -44.58231683 42.96001641 -46.43896484 41.97680664 C-48.72045108 40.76919512 -51.00577759 39.56880284 -53.29541016 38.37670898 C-54.30007324 37.84247314 -55.30473633 37.3082373 -56.33984375 36.7578125 C-57.22019287 36.2952002 -58.10054199 35.83258789 -59.00756836 35.35595703 C-61 34 -61 34 -62 31 C-61.30664551 30.6282666 -60.61329102 30.2565332 -59.89892578 29.87353516 C-43.02950525 20.83189606 -43.02950525 20.83189606 -26.25 11.625 C-25.53972656 11.23159424 -24.82945312 10.83818848 -24.09765625 10.43286133 C-20.6772921 8.52888526 -17.28729342 6.58699893 -13.9296875 4.57421875 C-13.28612305 4.19249512 -12.64255859 3.81077148 -11.97949219 3.41748047 C-10.2534817 2.38905453 -8.53650514 1.34550845 -6.8203125 0.30078125 C-3.63025247 -1.17053453 -3.17346176 -1.08835813 0 0 Z " fill="#010101" transform="translate(514,274)"/>
<path d="M0 0 C4.3799873 2.65731447 7.60550499 5.74394292 9.625 10.5 C10.76203578 17.09173444 10.99745472 23.46121073 7.0625 29.125 C1.86436069 34.73225213 -2.22208655 36.72066845 -9.8125 37.0625 C-15.94104184 36.8514136 -19.85956178 35.6533512 -24.375 31.5 C-24.9009375 31.03851562 -25.426875 30.57703125 -25.96875 30.1015625 C-30.23966378 25.42728464 -30.15467867 19.971948 -29.921875 13.88671875 C-29.10065915 8.80104629 -27.18756769 5.87951435 -23.375 2.5 C-22.86839844 2.04882812 -22.36179687 1.59765625 -21.83984375 1.1328125 C-15.70445719 -3.23883886 -6.72073032 -2.88952705 0 0 Z " fill="#080909" transform="translate(605.375,707.5)"/>
<path d="M0 0 C4.93373497 2.73167247 8.90603413 6.73439931 10.69921875 12.1484375 C10.69921875 15.1184375 10.69921875 18.0884375 10.69921875 21.1484375 C1.45921875 21.1484375 -7.78078125 21.1484375 -17.30078125 21.1484375 C-14.16902439 26.92104049 -14.16902439 26.92104049 -11.30078125 28.1484375 C-5.92354268 28.61088002 -1.3417859 28.21654197 3.69921875 26.1484375 C5.01921875 27.4684375 6.33921875 28.7884375 7.69921875 30.1484375 C6.73181243 33.26563563 5.6915593 34.15320338 2.88671875 35.8984375 C-3.20524193 38.19248127 -10.66113594 38.49177662 -16.77734375 36.234375 C-22.11539053 33.13550889 -25.33767062 29.0377694 -27.30078125 23.1484375 C-28.03347552 16.66932677 -27.91870867 11.25225466 -23.96875 5.875 C-17.53952961 -0.78007123 -8.83406465 -3.26965381 0 0 Z " fill="#0D0D0D" transform="translate(459.30078125,706.8515625)"/>
<path d="M0 0 C4.18043038 4.51046436 5.12599892 7.03623048 5.09765625 13.1015625 C5.09443359 14.31328125 5.09121094 15.525 5.08789062 16.7734375 C5.07532227 18.67996094 5.07532227 18.67996094 5.0625 20.625 C5.05798828 21.90375 5.05347656 23.1825 5.04882812 24.5 C5.03701203 27.66671292 5.02053815 30.83333356 5 34 C2.03 34 -0.94 34 -4 34 C-4 33.01 -4 32.02 -4 31 C-5.134375 31.66 -6.26875 32.32 -7.4375 33 C-12.00484367 35.26346235 -15.96590212 35.93051717 -21 35 C-24.214197 33.36368153 -26.24693202 32.02691088 -28.375 29.125 C-29.53610452 25.17724464 -29.45148196 22.14198379 -27.9375 18.3125 C-25.319207 15.18744061 -22.92625978 13.81099792 -19 13 C-14.32144983 12.76453686 -9.67982465 12.82474998 -5 13 C-6.08784968 9.75016865 -6.08784968 9.75016865 -8 7 C-9.93538935 6.90044896 -11.87455769 6.87031332 -13.8125 6.875 C-14.87082031 6.87242187 -15.92914063 6.86984375 -17.01953125 6.8671875 C-19.53689017 6.97936339 -21.60423255 7.2690879 -24 8 C-25.5625 5.6875 -25.5625 5.6875 -27 3 C-26.67 2.01 -26.34 1.02 -26 0 C-17.62121464 -4.18939268 -8.21363079 -4.86112843 0 0 Z " fill="#0C0C0C" transform="translate(397,709)"/>
<path d="M0 0 C5.43462109 2.29548978 7.68395691 5.64828191 10 11 C10.34057617 14.15966797 10.34057617 14.15966797 10.29296875 17.4921875 C10.2784668 19.29042969 10.2784668 19.29042969 10.26367188 21.125 C10.23853516 22.3625 10.21339844 23.6 10.1875 24.875 C10.16719727 26.76605469 10.16719727 26.76605469 10.14648438 28.6953125 C10.11123435 31.79731454 10.06195504 34.89843534 10 38 C6.7 38 3.4 38 0 38 C-0.01458252 37.29391602 -0.02916504 36.58783203 -0.04418945 35.86035156 C-0.11873167 32.65635326 -0.21537205 29.45338984 -0.3125 26.25 C-0.33505859 25.13882813 -0.35761719 24.02765625 -0.38085938 22.8828125 C-0.4340332 21.27792969 -0.4340332 21.27792969 -0.48828125 19.640625 C-0.51446533 18.65610352 -0.54064941 17.67158203 -0.56762695 16.65722656 C-1.06790601 13.58267139 -1.78055561 12.17360769 -4 10 C-8.0867612 9.41487445 -8.0867612 9.41487445 -12 10 C-14.56394699 12.07944281 -15.85006444 13.29538334 -16.54589844 16.56542969 C-16.5668457 17.50805664 -16.58779297 18.45068359 -16.609375 19.421875 C-16.64160156 20.44667969 -16.67382812 21.47148438 -16.70703125 22.52734375 C-16.72830078 24.12255859 -16.72830078 24.12255859 -16.75 25.75 C-16.77964844 26.82894531 -16.80929687 27.90789063 -16.83984375 29.01953125 C-16.91045671 31.67928595 -16.95750236 34.33964754 -17 37 C-20.3 37 -23.6 37 -27 37 C-27 25.12 -27 13.24 -27 1 C-23.7 1 -20.4 1 -17 1 C-16.67 1.66 -16.34 2.32 -16 3 C-15.401875 2.505 -14.80375 2.01 -14.1875 1.5 C-9.45922234 -0.72507184 -5.13611863 -0.77998363 0 0 Z " fill="#0B0B0B" transform="translate(506,706)"/>
<path d="M0 0 C2.97 0 5.94 0 9 0 C9.01458252 0.64026123 9.02916504 1.28052246 9.04418945 1.94018555 C9.11891382 4.85654831 9.21549293 7.77179687 9.3125 10.6875 C9.33505859 11.69490234 9.35761719 12.70230469 9.38085938 13.74023438 C9.48365173 20.94320023 9.48365173 20.94320023 13 27 C16.17462438 27.45351777 17.98716577 27.67424314 21 27 C23.43119623 25.12984906 24.64069173 23.71861655 26 21 C26.15175549 19.40737934 26.24900325 17.80935144 26.31640625 16.2109375 C26.35830078 15.26992188 26.40019531 14.32890625 26.44335938 13.359375 C26.48267578 12.37453125 26.52199219 11.3896875 26.5625 10.375 C26.60568359 9.38242187 26.64886719 8.38984375 26.69335938 7.3671875 C26.79961069 4.91160162 26.90164964 2.45591297 27 0 C29.97 0 32.94 0 36 0 C36 11.88 36 23.76 36 36 C33.03 36 30.06 36 27 36 C26.67 35.01 26.34 34.02 26 33 C25.236875 33.66 24.47375 34.32 23.6875 35 C19.15888745 38.01190383 14.22859356 37.76250323 9 37 C3.90935185 34.63648479 2.12931995 32.09220052 0 27 C-0.34057617 23.84033203 -0.34057617 23.84033203 -0.29296875 20.5078125 C-0.28330078 19.30898438 -0.27363281 18.11015625 -0.26367188 16.875 C-0.23853516 15.6375 -0.21339844 14.4 -0.1875 13.125 C-0.17396484 11.86429688 -0.16042969 10.60359375 -0.14648438 9.3046875 C-0.11123435 6.20268546 -0.06195504 3.10156466 0 0 Z " fill="#040404" transform="translate(624,707)"/>
<path d="M0 0 C-0.75 2.9375 -0.75 2.9375 -2 6 C-4 6.9375 -4 6.9375 -6 7 C-6.66 6.67 -7.32 6.34 -8 6 C-9.66444461 5.9044069 -11.33281963 5.87015355 -13 5.875 C-14.3303125 5.87113281 -14.3303125 5.87113281 -15.6875 5.8671875 C-18.02676966 5.84872098 -18.02676966 5.84872098 -20 7 C-20 7.99 -20 8.98 -20 10 C-18.81921875 10.31453125 -17.6384375 10.6290625 -16.421875 10.953125 C-14.86438939 11.3847174 -13.3071082 11.81704796 -11.75 12.25 C-10.97269531 12.45496094 -10.19539062 12.65992188 -9.39453125 12.87109375 C-4.99290076 14.11257927 -1.7696249 15.11960205 1 19 C1.47336166 23.2602549 1.44035112 25.83436467 -0.0625 29.8125 C-3.58778972 33.79266581 -6.95785237 34.83539364 -12.1015625 35.25 C-18.0289665 35.35900973 -23.49694928 35.3235103 -29 33 C-29.66 32.01 -30.32 31.02 -31 30 C-30.01 28.02 -29.02 26.04 -28 24 C-26.845 24.495 -25.69 24.99 -24.5 25.5 C-19.20545036 27.49368477 -14.45077918 27.81692639 -9 26 C-8.26676204 23.98491642 -8.26676204 23.98491642 -8 22 C-9.02480469 21.81824219 -10.04960938 21.63648438 -11.10546875 21.44921875 C-12.4662429 21.19583322 -13.82691473 20.9418978 -15.1875 20.6875 C-15.86103516 20.56955078 -16.53457031 20.45160156 -17.22851562 20.33007812 C-22.03004976 19.41661553 -26.2827209 18.28970546 -29.3125 14.25 C-30.31199111 10.9789382 -30.3581657 8.40257412 -30 5 C-23.3880756 -6.18941053 -10.40670078 -4.31685366 0 0 Z " fill="#0C0B0C" transform="translate(699,709)"/>
<path d="M0 0 C13.53 0 27.06 0 41 0 C41 2.64 41 5.28 41 8 C36.05 8 31.1 8 26 8 C26 20.87 26 33.74 26 47 C22.7 47 19.4 47 16 47 C16 34.13 16 21.26 16 8 C10.72 8 5.44 8 0 8 C0 5.36 0 2.72 0 0 Z " fill="#040404" transform="translate(326,696)"/>
<path d="M0 0 C3.3 0 6.6 0 10 0 C10 2.97 10 5.94 10 9 C13.3 9 16.6 9 20 9 C20 11.64 20 14.28 20 17 C16.7 17 13.4 17 10 17 C10.14046255 19.95867918 10.28712224 22.91682264 10.4375 25.875 C10.47681641 26.71675781 10.51613281 27.55851563 10.55664062 28.42578125 C10.59853516 29.23144531 10.64042969 30.03710938 10.68359375 30.8671875 C10.72025146 31.61081543 10.75690918 32.35444336 10.79467773 33.12060547 C10.89955865 35.08864312 10.89955865 35.08864312 12 37 C14.64 37 17.28 37 20 37 C20.66 39.31 21.32 41.62 22 44 C17.52690208 46.98206528 13.24277005 46.47661546 8 46 C4.15538699 44.63836623 3.31622317 43.58803728 1.38671875 40 C-0.50611505 35.4013311 -0.33287893 30.96437943 -0.1875 26.0625 C-0.17396484 25.18787109 -0.16042969 24.31324219 -0.14648438 23.41210938 C-0.11144109 21.27446914 -0.05764541 19.13715016 0 17 C-1.98 17 -3.96 17 -6 17 C-6 14.36 -6 11.72 -6 9 C-4.02 9 -2.04 9 0 9 C0 6.03 0 3.06 0 0 Z " fill="#0D0D0E" transform="translate(528,698)"/>
<path d="M0 0 C2.97 0 5.94 0 9 0 C9 16.83 9 33.66 9 51 C6.03 51 3.06 51 0 51 C0 34.17 0 17.34 0 0 Z " fill="#010101" transform="translate(414,692)"/>
<path d="M0 0 C4.10007872 0.38679988 6.11398775 1.78344381 9.3125 4.3125 C11.16112688 8.00975375 10.78837094 12.27711442 10.3125 16.3125 C8.51603146 19.24673195 7.3683929 20.78455355 4.3125 22.3125 C0.13105989 22.70697548 -1.99696048 22.76285186 -5.5625 20.4375 C-8.56138696 17.43861304 -8.90090819 15.64545137 -9.0625 11.5 C-9.04480591 7.41856216 -8.90967002 6.5916367 -6.25 3.25 C-5.404375 2.610625 -4.55875 1.97125 -3.6875 1.3125 C-2.6875 0.3125 -2.6875 0.3125 0 0 Z " fill="#F5F6F6" transform="translate(594.6875,713.6875)"/>
<path d="M0 0 C2.97 0 5.94 0 9 0 C9 11.88 9 23.76 9 36 C6.03 36 3.06 36 0 36 C0 24.12 0 12.24 0 0 Z " fill="#020101" transform="translate(558,707)"/>
<path d="M0 0 C9.24 0 18.48 0 28 0 C28 0.33 28 0.66 28 1 C27.04287109 1.07347656 27.04287109 1.07347656 26.06640625 1.1484375 C25.24011719 1.22320313 24.41382813 1.29796875 23.5625 1.375 C22.32693359 1.47941406 22.32693359 1.47941406 21.06640625 1.5859375 C20.38449219 1.72257813 19.70257813 1.85921875 19 2 C18.67 2.66 18.34 3.32 18 4 C18.99 4.33 19.98 4.66 21 5 C16.02654814 8.06058576 11.71798702 8.95826302 6 8 C3 6.25 3 6.25 1 4 C0.67 2.68 0.34 1.36 0 0 Z " fill="#E8E7E7" transform="translate(442,728)"/>
<path d="M0 0 C2 1.125 2 1.125 3 3 C2.77669287 6.64734979 2.61627165 8.38372835 0 11 C-6.09583333 11.55416667 -6.09583333 11.55416667 -8.9375 9.8125 C-10.38718434 7.33950907 -10.42317323 5.82115488 -10 3 C-7.66004009 -0.99169632 -4.2277022 -0.45296809 0 0 Z " fill="#101010" transform="translate(566,690)"/>
<path d="M0 0 C2.9375 1.75 2.9375 1.75 5 4 C5 5.32 5 6.64 5 8 C-0.94 8 -6.88 8 -13 8 C-11.23764023 0.95056092 -7.03703136 -1.00529019 0 0 Z " fill="#F7F6F7" transform="translate(455,714)"/>
<path d="M0 0 C1.09570312 0.00902344 2.19140625 0.01804687 3.3203125 0.02734375 C4.16335938 0.03894531 5.00640625 0.05054688 5.875 0.0625 C5.39738806 5.43563433 5.39738806 5.43563433 3.3125 7.9375 C-0.35111923 9.62840118 -3.10142583 9.38698179 -7.125 9.0625 C-7.785 8.4025 -8.445 7.7425 -9.125 7.0625 C-8.875 4 -8.875 4 -8.125 1.0625 C-5.36047967 -0.31976016 -3.0788637 -0.03275387 0 0 Z " fill="#EFECEB" transform="translate(387.125,727.9375)"/>
<path d="M0 0 C0.33 0 0.66 0 1 0 C1 8.25 1 16.5 1 25 C-10 25 -10 25 -14 23 C-12.35 22.34 -10.7 21.68 -9 21 C-9 21.99 -9 22.98 -9 24 C-6.03 24 -3.06 24 0 24 C0 16.08 0 8.16 0 0 Z " fill="#AFADAE" transform="translate(402,719)"/>
<path d="M0 0 C0.90105469 0.01804687 1.80210937 0.03609375 2.73046875 0.0546875 C3.41753906 0.07789063 4.10460937 0.10109375 4.8125 0.125 C4.8125 0.455 4.8125 0.785 4.8125 1.125 C3.575 1.2075 2.3375 1.29 1.0625 1.375 C-2.17632964 1.75975459 -3.06657883 2.02524003 -5.6875 4.1875 C-6.43 5.1465625 -6.43 5.1465625 -7.1875 6.125 C-7.5175 4.805 -7.8475 3.485 -8.1875 2.125 C-4.87379 -0.08414 -3.8428979 -0.09981553 0 0 Z " fill="#D4D4DB" transform="translate(686.1875,713.875)"/>
</svg>
